<svg xmlns="http://www.w3.org/2000/svg" width="24" height="24" fill="none" viewBox="0 0 24 24">
  <path fill="#000" d="M18.454 16.469a8.691 8.691 0 0 1-.86 1.546c-.452.645-.823 1.092-1.108 1.34-.442.407-.916.615-1.424.627-.364 0-.804-.104-1.316-.314-.513-.21-.985-.313-1.416-.313-.452 0-.937.103-1.456.313-.52.21-.939.32-1.259.33-.486.021-.972-.193-1.456-.643-.31-.27-.696-.732-1.159-1.387a9.591 9.591 0 0 1-1.226-2.434c-.342-.999-.514-1.966-.514-2.902 0-1.072.231-1.997.696-2.772a4.082 4.082 0 0 1 1.457-1.474 3.92 3.92 0 0 1 1.97-.556c.387 0 .894.12 1.524.355.628.236 1.031.355 1.208.355.133 0 .58-.14 1.34-.418.72-.259 1.325-.366 1.822-.324 1.346.109 2.358.64 3.03 1.595-1.204.73-1.8 1.752-1.787 3.062.01 1.021.38 1.87 1.109 2.545.33.313.698.555 1.108.727-.089.258-.183.505-.283.742ZM15.367 4.32c0 .8-.292 1.547-.875 2.239-.703.822-1.554 1.297-2.476 1.222a2.519 2.519 0 0 1-.019-.303c0-.768.335-1.59.929-2.263.296-.34.673-.623 1.13-.849.457-.222.888-.345 1.294-.366.012.107.017.214.017.32Z"/>
</svg>
