<svg xmlns="http://www.w3.org/2000/svg" width="24" height="24" fill="none" viewBox="0 0 24 24">
  <path fill="#F90" d="M17.618 17.171c-6.603 3.143-10.702.513-13.325-1.084-.163-.1-.439.024-.2.299.875 1.06 3.74 3.614 7.478 3.614 3.741 0 5.967-2.041 6.246-2.398.276-.353.08-.547-.199-.43Zm1.855-1.024c-.177-.231-1.078-.274-1.645-.204-.568.067-1.42.414-1.346.623.038.078.115.043.505.008.392-.04 1.487-.178 1.716.12.23.301-.35 1.733-.456 1.964-.102.231.04.29.231.137.19-.154.532-.552.762-1.116.229-.566.368-1.356.233-1.532Z"/>
  <path fill="#000" fill-rule="evenodd" d="M13.178 10.758c0 .825.02 1.512-.396 2.245-.336.595-.87.961-1.465.961-.813 0-1.286-.619-1.286-1.533 0-1.804 1.617-2.131 3.147-2.131v.458Zm2.135 5.16a.442.442 0 0 1-.5.05c-.703-.584-.828-.854-1.215-1.411-1.161 1.185-1.983 1.539-3.49 1.539-1.78 0-3.167-1.098-3.167-3.299 0-1.717.932-2.887 2.257-3.459 1.149-.506 2.753-.595 3.98-.735v-.274c0-.503.039-1.099-.256-1.533-.26-.39-.753-.551-1.188-.551-.807 0-1.527.414-1.703 1.271-.036.19-.175.378-.366.387l-2.054-.22c-.173-.039-.363-.179-.316-.444C7.77 4.75 10.016 4 12.03 4c1.03 0 2.376.274 3.188 1.054 1.03.962.932 2.245.932 3.64v3.3c0 .991.41 1.426.798 1.962.137.19.167.42-.006.562-.432.36-1.2 1.03-1.622 1.405l-.007-.006" clip-rule="evenodd"/>
  <path fill="#F90" d="M17.618 17.171c-6.603 3.143-10.702.513-13.325-1.084-.163-.1-.439.024-.2.299.875 1.06 3.74 3.614 7.478 3.614 3.741 0 5.967-2.041 6.246-2.398.276-.353.08-.547-.199-.43Zm1.855-1.024c-.177-.231-1.078-.274-1.645-.204-.568.067-1.42.414-1.346.623.038.078.115.043.505.008.392-.04 1.487-.178 1.716.12.23.301-.35 1.733-.456 1.964-.102.231.04.29.231.137.19-.154.532-.552.762-1.116.229-.566.368-1.356.233-1.532Z"/>
  <path fill="#000" fill-rule="evenodd" d="M13.237 10.758c0 .825.02 1.512-.396 2.245-.336.595-.87.961-1.465.961-.812 0-1.286-.619-1.286-1.533 0-1.804 1.617-2.131 3.147-2.131v.458Zm2.135 5.16a.442.442 0 0 1-.5.05c-.703-.584-.828-.854-1.215-1.411-1.161 1.185-1.983 1.539-3.49 1.539-1.78 0-3.167-1.098-3.167-3.299 0-1.717.932-2.887 2.257-3.459 1.149-.506 2.754-.595 3.98-.735v-.274c0-.503.039-1.099-.256-1.533-.259-.39-.753-.551-1.188-.551-.807 0-1.527.414-1.703 1.271-.035.19-.175.378-.366.387l-2.054-.22c-.173-.039-.363-.179-.316-.444C7.828 4.75 10.075 4 12.088 4c1.03 0 2.376.274 3.188 1.054 1.03.962.932 2.245.932 3.64v3.3c0 .991.411 1.426.798 1.962.137.19.167.42-.006.562-.432.36-1.2 1.03-1.622 1.405l-.006-.006" clip-rule="evenodd"/>
</svg>
