<svg xmlns="http://www.w3.org/2000/svg" width="24" height="24" fill="none" viewBox="0 0 24 24">
  <path fill="#19486F" fill-rule="evenodd" d="m19.838 12.139-8.045.117v1.846l8.045.76v-2.723Z" clip-rule="evenodd"/>
  <path fill="#2E73B8" fill-rule="evenodd" d="m7.836 6.383 8.161 2.537-.01 2.321-9.914-1.104 1.763-3.754Z" clip-rule="evenodd"/>
  <path fill="#99BCE3" fill-rule="evenodd" d="m6.122 12.863 8.042-.116v-1.846l-8.042-.76v2.722Z" clip-rule="evenodd"/>
  <path fill="#5294CF" fill-rule="evenodd" d="m11.006 12.694-4.584.044v3.245l4.584-.646v-2.643Z" clip-rule="evenodd"/>
  <path fill="#205B99" fill-rule="evenodd" d="m19.498 11.335-4.533.215V9.648l4.533-.644v2.33Z" clip-rule="evenodd"/>
  <path fill="#5294CF" fill-rule="evenodd" d="M19.437 6.641 14.197 4l-2.262 2.508 6.532 1.974v2.33l-6.532-.659v3.667l4.77-.484V11.99l.959 1.25.803 1.045.02.024-.02.029-.8 1.368-.963 1.642v-1.35l-4.769 1.434 2.29 2.517 5.212-2.626V6.641Z" clip-rule="evenodd"/>
  <path fill="#205B99" fill-rule="evenodd" d="m6.422 13.163 6.545.664V10.16l-4.721.477v1.364l-.984-1.266-.84-1.082.845-1.415.979-1.644v1.349l4.72-1.422v-.007L10.721 4 5.469 6.646v10.686l5.267 2.652 2.23-2.545-6.544-1.97v-2.306Z" clip-rule="evenodd"/>
  <path fill="#19486F" fill-rule="evenodd" d="m19.498 9.004-4.533.645-6.719-1.191 4.72-1.428 6.532 1.974Z" clip-rule="evenodd"/>
  <path fill="#99BCE3" fill-rule="evenodd" d="m17.736 16.519-6.73-1.182-4.584.646 6.545 1.97 4.769-1.434Z" clip-rule="evenodd"/>
  <path fill="#2E73B8" fill-rule="evenodd" d="m17.653 18.12-8.162-2.536-.009-2.31 9.936 1.093-1.765 3.754Z" clip-rule="evenodd"/>
  <path fill="#19486F" fill-rule="evenodd" d="m19.369 11.64-8.045.117v1.846l8.045.76v-2.724Z" clip-rule="evenodd"/>
  <path fill="#2E73B8" fill-rule="evenodd" d="m7.367 5.884 8.162 2.537-.011 2.32-9.914-1.103 1.763-3.754Z" clip-rule="evenodd"/>
  <path fill="#99BCE3" fill-rule="evenodd" d="m5.653 12.363 8.042-.115v-1.846l-8.042-.76v2.721Z" clip-rule="evenodd"/>
  <path fill="#5294CF" fill-rule="evenodd" d="m10.537 12.194-4.584.045v3.245l4.584-.646v-2.644Z" clip-rule="evenodd"/>
  <path fill="#205B99" fill-rule="evenodd" d="m19.03 10.835-4.533.215v-1.9l4.533-.644v2.33Z" clip-rule="evenodd"/>
  <path fill="#2E73B8" fill-rule="evenodd" d="M10.252 4.016h4.507v3.622h-4.507V4.016Zm.016 12.45h4.491V20h-4.491v-3.534Z" clip-rule="evenodd"/>
  <path fill="#5294CF" fill-rule="evenodd" d="m20 6.657-5.241-2.641-2.261 2.507 6.531 1.975v2.33l-6.531-.66v3.668l4.769-.484v-1.346l.96 1.25.802 1.044.02.025-.02.029-.8 1.368-.962 1.641v-1.35l-4.77 1.435 2.29 2.517L20 17.339V6.657Z" clip-rule="evenodd"/>
  <path fill="#205B99" fill-rule="evenodd" d="m5.953 13.178 6.545.665v-3.668l-4.72.478v1.364l-.985-1.267-.84-1.081.845-1.415.98-1.644v1.348l4.72-1.421V6.53l-2.246-2.514L5 6.66v10.687L10.268 20l2.23-2.546-6.545-1.97v-2.306Z" clip-rule="evenodd"/>
  <path fill="#19486F" fill-rule="evenodd" d="m19.03 8.505-4.534.644-6.719-1.19 4.72-1.429 6.532 1.975Z" clip-rule="evenodd"/>
  <path fill="#99BCE3" fill-rule="evenodd" d="m17.267 16.02-6.73-1.182-4.584.646 6.545 1.97 4.77-1.435Z" clip-rule="evenodd"/>
</svg>
