<svg xmlns="http://www.w3.org/2000/svg" width="24" height="24" fill="none" viewBox="0 0 24 24">
  <path fill="#AECBFA" d="m12.55 4.148 4.986 2.919c.338.185.55.537.554.921v6.407a1.07 1.07 0 0 1-.554.921L9.59 19.962a.272.272 0 0 1-.41-.226v-2.82l-2.726-1.6a1.07 1.07 0 0 1-.554-.921V7.988c.004-.384.216-.736.554-.921l4.987-2.92a1.112 1.112 0 0 1 1.108 0Z"/>
  <path fill="#669DF6" d="M8.994 9.99c-.165 0-.3.131-.305.295v3.146l.001.033a.582.582 0 0 0 .281.465l.012.007 1.534.875v1.252a.305.305 0 0 0 .447.247l.01-.006 4.07-2.357.029-.017a.582.582 0 0 0 .265-.474v-3.161a.305.305 0 0 0-.447-.269l-.01.005-2.706 1.554-.023.013a.305.305 0 0 1-.29-.007l-.009-.006-2.708-1.555a.304.304 0 0 0-.151-.04Z"/>
  <path fill="#185ABC" d="M12.226 6.468a.381.381 0 0 0-.366-.007l-.01.006-2.985 1.685a.305.305 0 0 0-.01.524l.008.005 2.984 1.715a.381.381 0 0 0 .37.005l.012-.006 2.938-1.715a.305.305 0 0 0 .006-.522l-.008-.005-2.939-1.685Z"/>
</svg>
