<svg xmlns="http://www.w3.org/2000/svg" width="24" height="24" fill="none" viewBox="0 0 24 24">
  <path fill="#000" fill-rule="evenodd" d="M14.604 9.723a5.61 5.61 0 0 0-.201-.004l-.026.057a.103.103 0 0 1-.045-.006h-.002c-.077.001-.155.002-.231.006a5.337 5.337 0 0 0-.468.041 7.174 7.174 0 0 0-.562.096 7.726 7.726 0 0 0-.572-.215l.008-.006a3.897 3.897 0 0 1 .597-.336c.141-.064.284-.116.432-.155a1.75 1.75 0 0 1 .37-.057l.065-.002h.004c.007-.002.01-.002.01-.006l.022.001h.022l.08.005c.074.009.145.023.215.043.052.017.103.036.152.06.037.02.073.042.11.064a1.045 1.045 0 0 1 .147.118v.001c.02.019.04.038.057.058.072.08.132.171.182.267a4.133 4.133 0 0 0-.366-.03Zm1.729 1.326c.05.082.097.165.142.25a1.405 1.405 0 0 1 .076.226c.007.031.015.062.02.094.032.197.03.4.001.595l-.013.085-.013.056a.523.523 0 0 1-.012.057l-.036.136-.026.089a6.24 6.24 0 0 0-.358-.481 7.128 7.128 0 0 0-.36-.407l.018-.144c.016-.151.027-.305.033-.458a5.573 5.573 0 0 0-.015-.554 1.906 1.906 0 0 1 .323.218 1.687 1.687 0 0 1 .22.238Zm-1.165-.673a2.649 2.649 0 0 0-.161-.03 4.007 4.007 0 0 0-.481-.043c-.037-.002-.072-.003-.108-.002a.103.103 0 0 1-.038.006 5.724 5.724 0 0 0-.464.024 8.245 8.245 0 0 1 1.296.904 4.187 4.187 0 0 0-.012-.63c-.006-.073-.018-.146-.03-.22l-.002-.009Zm-3.08-.19a7.806 7.806 0 0 0-.165-.046 6.907 6.907 0 0 0-.205.185 7.34 7.34 0 0 1 .37-.138Zm-1.339 1.225.04-.023a9.71 9.71 0 0 1 1.216-.58 8.373 8.373 0 0 1 .944-.306 7.819 7.819 0 0 1 1.74 1.059c.15.123.298.251.44.386a8.155 8.155 0 0 1-.49 1.681c-.1.252-.209.498-.33.74a11.188 11.188 0 0 1-1.075 1.742 10.189 10.189 0 0 1-.757.39 9.166 9.166 0 0 1-1.287.473l-.151.04a7.77 7.77 0 0 1-1.787-1.097 7.048 7.048 0 0 1-.394-.352 7.568 7.568 0 0 1 .252-1.013c.069-.22.148-.44.234-.654a11.068 11.068 0 0 1 1.166-2.157c.077-.111.157-.221.24-.329Zm-.44-.393a10.036 10.036 0 0 1 .906-1.03 5.767 5.767 0 0 0-.806-.07h-.055c-.005.002-.01.003-.017.002-.043-.001-.088.001-.134.003l-.25.013a4.675 4.675 0 0 0-.318.036c-.082.014-.164.027-.244.044l-.06.014a2.78 2.78 0 0 0-.264.07c-.292.09-.576.22-.83.397h-.001a3.65 3.65 0 0 0-.101.076c-.048.04-.097.078-.142.119a2.317 2.317 0 0 0-.444.555l-.012.02a2.359 2.359 0 0 0-.235.644c-.019.099-.032.2-.039.3-.02.29.009.582.076.867.04.178.094.354.16.525l.076-.113c.088-.129.182-.254.277-.377a8.167 8.167 0 0 1 1.253-1.256 9.882 9.882 0 0 1 1.204-.839Zm-2.507 3.216a5.59 5.59 0 0 1 .743-1.05 7.1 7.1 0 0 1 .925-.891 11.566 11.566 0 0 0-.744 1.584 11.1 11.1 0 0 0-.238.72 8.394 8.394 0 0 0-.116.45 5.727 5.727 0 0 1-.57-.813Zm-.658 0a4.596 4.596 0 0 1-.237-.563 5.305 5.305 0 0 0 .073.959c.022-.064.048-.127.074-.19.028-.07.06-.138.09-.205Zm1.062 2.68a1.889 1.889 0 0 1-.185-.112 2.037 2.037 0 0 1-.157-.125 1.422 1.422 0 0 1-.376-.564 1.92 1.92 0 0 1-.06-.23 1.961 1.961 0 0 1 0-.587l.014-.085.012-.056.012-.057.036-.136.023-.078a6.44 6.44 0 0 0 .716.887 6.25 6.25 0 0 0-.048.93l.003.049c.003.054.005.109.01.163Zm-.77.245c.118.166.244.323.38.472a5.661 5.661 0 0 0 1.19 1.002 1.547 1.547 0 0 0 .325.19c.187.1.38.19.573.27.246.102.5.185.76.247A5.882 5.882 0 0 0 12 19.5a5.611 5.611 0 0 0 3.309-1.076 5.561 5.561 0 0 0 1.294-1.31 5.824 5.824 0 0 0 .648-1.184 5.86 5.86 0 0 0 .417-1.952 5.898 5.898 0 0 0-.513-2.617 5.777 5.777 0 0 0-2.452-2.663 5.62 5.62 0 0 0-2.689-.692h-.003c-.011-.002-.02-.003-.033-.015a2.655 2.655 0 0 0-.271.007 5.588 5.588 0 0 0-3.017 1.07 5.493 5.493 0 0 0-1.272 1.28 6.001 6.001 0 0 0-.685 1.252 5.905 5.905 0 0 0-.405 1.969 5.914 5.914 0 0 0 .254 1.876c.073.235.16.469.262.695a2.167 2.167 0 0 0 .138.408 1.925 1.925 0 0 0 .453.611Zm1.618.662a5.084 5.084 0 0 0 .984.011 6.59 6.59 0 0 0 1.03-.169c.14.056.28.108.422.155l-.05.034a4.86 4.86 0 0 1-.321.192 3.059 3.059 0 0 1-.545.235c-.072.02-.141.04-.215.055-.124.025-.252.04-.379.036a1.166 1.166 0 0 1-.328-.053 1.023 1.023 0 0 1-.322-.17 1.263 1.263 0 0 1-.13-.125 1.291 1.291 0 0 1-.146-.2Zm1.016-.638-.066.006a5.146 5.146 0 0 1-.504.014 3.654 3.654 0 0 1-.685-.077l-.001-.01a3.582 3.582 0 0 1-.044-.503c-.003-.112 0-.224.006-.336l.026.022c.393.336.82.63 1.268.884Zm1.961.187.032.008.041-.036a9.863 9.863 0 0 1-.073.028Zm1.546-.738-.09.112a9.51 9.51 0 0 1-.715.785l.087.012a5.229 5.229 0 0 0 1.522 0c.077-.01.153-.026.23-.042l.175-.043c.048-.012.092-.026.137-.04.29-.092.57-.216.82-.391h.002a3.338 3.338 0 0 0 .253-.201 2.46 2.46 0 0 0 .399-.477c.081-.133.152-.276.205-.425a2.638 2.638 0 0 0 .126-.605 3.06 3.06 0 0 0-.07-.867 3.754 3.754 0 0 0-.159-.522 6.202 6.202 0 0 1-.451.629 7.922 7.922 0 0 1-.743.795 9.328 9.328 0 0 1-1.103.882c-.204.14-.413.272-.625.398Zm2.615-3.345a5.686 5.686 0 0 0-.57-.813 9.214 9.214 0 0 1-.354 1.16 11.188 11.188 0 0 1-.75 1.595 8.696 8.696 0 0 0 .548-.493 7.565 7.565 0 0 0 .661-.741 5.813 5.813 0 0 0 .465-.708Zm.654-.009c.087.175.165.356.232.539l.016.049a5.091 5.091 0 0 0-.083-1.03 4.389 4.389 0 0 1-.126.35 3.793 3.793 0 0 1-.039.092ZM11.99 4.503c-.012-.003-.015-.003-.028-.003-.006 0-.01 0-.012.003h-.029a.52.52 0 0 0-.069.017.306.306 0 0 0-.192.25v1.86c0 .006 0 .01.002.016l.001.015c.003.03.013.056.025.083a.272.272 0 0 0 .151.146.33.33 0 0 0 .082.02.329.329 0 0 0 .126-.017.338.338 0 0 0 .107-.07.278.278 0 0 0 .05-.07.342.342 0 0 0 .032-.096c.003-.01.003-.02.003-.03V4.766a.304.304 0 0 0-.075-.17.3.3 0 0 0-.174-.093Zm4.447 1.215h-.007l-.005-.002c-.003 0-.008 0-.015-.002h-.025l-.01.001-.03.006a.304.304 0 0 0-.075.03.264.264 0 0 0-.064.047l-.017.02-.017.02-.013.024-.897 1.575-.006.011a.06.06 0 0 0-.006.012.307.307 0 0 0 .021.285.36.36 0 0 0 .087.085.284.284 0 0 0 .22.04.279.279 0 0 0 .097-.042.225.225 0 0 0 .069-.063.076.076 0 0 0 .015-.022l.007-.011.897-1.575.006-.012c.003-.004.004-.008.005-.012l.006-.012a.294.294 0 0 0 .02-.08.253.253 0 0 0-.001-.082.292.292 0 0 0-.153-.209.219.219 0 0 0-.102-.032h-.007Zm-8.938-.001h-.013c-.004 0-.007 0-.008.003h-.014a.207.207 0 0 1-.027.004.344.344 0 0 0-.078.023.303.303 0 0 0-.162.206.482.482 0 0 0-.005.08.23.23 0 0 0 .02.092c.002.01.005.016.01.025l.006.011.897 1.575.006.011.008.011a.484.484 0 0 0 .077.074.279.279 0 0 0 .282.023.293.293 0 0 0 .156-.18.306.306 0 0 0-.018-.223l-.007-.011-.897-1.575-.013-.023a.31.31 0 0 0-.161-.117.22.22 0 0 0-.04-.007l-.019-.002ZM4.325 9.01a.054.054 0 0 0-.019-.002c-.005-.004-.01-.003-.008.002l-.007-.001h-.017c-.007 0-.012 0-.019.002a.3.3 0 0 0-.177.092.298.298 0 0 0-.056.092.287.287 0 0 0 .028.27.227.227 0 0 0 .062.07c.007.008.013.01.021.016l.012.007 1.553.909.01.006a.066.066 0 0 0 .013.006.471.471 0 0 0 .103.025.278.278 0 0 0 .2-.064.22.22 0 0 0 .062-.07.217.217 0 0 0 .033-.073.337.337 0 0 0 .008-.12.316.316 0 0 0-.11-.198c-.007-.007-.013-.01-.021-.016l-.012-.006-1.553-.91-.022-.013c-.012-.006-.025-.01-.037-.014-.014-.004-.027-.008-.041-.009l-.006-.001Zm15.405-.004c-.003.002-.008.001-.012 0-.005-.001-.009-.002-.012-.008L19.699 9h-.008a.13.13 0 0 0-.039.005.484.484 0 0 0-.063.022l-.022.013-1.553.91-.012.006a.066.066 0 0 0-.01.008l-.01.008a.302.302 0 0 0-.108.291.301.301 0 0 0 .199.223c.034.01.07.014.105.011a.198.198 0 0 0 .09-.02.073.073 0 0 0 .025-.01l.012-.007 1.553-.909.01-.006.011-.008a.281.281 0 0 0 .087-.1.25.25 0 0 0 .03-.088c.003-.028.006-.056.002-.083a.21.21 0 0 0-.018-.078.31.31 0 0 0-.134-.15.318.318 0 0 0-.097-.029c-.007 0-.013 0-.02-.002Zm-8.36 9.878a4.134 4.134 0 0 1-.493-.087 3.875 3.875 0 0 0 .474-.21c.126-.062.246-.134.365-.21a5.726 5.726 0 0 0 .496-.355c.18.041.362.075.544.101.315.046.633.068.951.066a6.075 6.075 0 0 0 .67-.048c.073-.01.147-.023.221-.036h.002c.06-.01.12-.022.179-.037l.05-.012a5.042 5.042 0 0 1-.745.415 5.001 5.001 0 0 1-2.08.45 4.27 4.27 0 0 1-.634-.037Zm1.092-10.266c.214.022.428.054.637.101a3.62 3.62 0 0 0-.547.252 5.255 5.255 0 0 0-.779.523 6.614 6.614 0 0 0-1.268-.162h-.047a.915.915 0 0 1-.092-.001h-.01a.2.2 0 0 0-.035.002c-.03-.002-.058-.001-.088 0h-.03l-.252.013a5.454 5.454 0 0 0-.72.105l-.07.016a5.047 5.047 0 0 1 2.562-.869l.085-.002c.028 0 .056 0 .084-.003l.092-.001h.002c.01 0 .02 0 .03.006.045-.004.091-.002.138 0 .102.005.205.01.308.02Z" clip-rule="evenodd"/>
</svg>
