<svg xmlns="http://www.w3.org/2000/svg" width="24" height="24" fill="none" viewBox="0 0 24 24">
  <g clip-path="url(#a)">
    <path fill="#000" d="M17.698 12.795a.55.55 0 0 1-.152.38.509.509 0 0 1-.732 0 .547.547 0 0 1-.152-.38v-4.8a.55.55 0 0 1 .152-.38.509.509 0 0 1 .732 0 .55.55 0 0 1 .152.38v4.8Zm-.18 3.325c-.068.07-1.995 1.736-5.527 1.736-3.531 0-5.445-1.656-5.526-1.727a.525.525 0 0 1-.18-.36.547.547 0 0 1 .12-.386.506.506 0 0 1 .728-.058c.03.022 1.75 1.47 4.854 1.47s4.838-1.457 4.855-1.47a.514.514 0 0 1 .732.058.541.541 0 0 1-.052.741l-.004-.004ZM6.281 7.996a.55.55 0 0 1 .172-.373.511.511 0 0 1 .376-.138.51.51 0 0 1 .338.158c.09.094.143.22.15.353v4.79a.55.55 0 0 1-.152.38.509.509 0 0 1-.733 0 .548.548 0 0 1-.151-.38v-4.79ZM8.879 6.93a.55.55 0 0 1 .173-.372.511.511 0 0 1 .375-.138.51.51 0 0 1 .339.158c.09.094.143.22.15.352v7.103c0 .143-.055.28-.153.38a.509.509 0 0 1-.732 0 .547.547 0 0 1-.152-.38V6.93Zm2.612-.266c0-.143.054-.28.151-.38a.509.509 0 0 1 .733 0c.097.1.152.237.152.38v7.724c0 .143-.055.28-.152.38a.509.509 0 0 1-.733 0 .548.548 0 0 1-.151-.38V6.664Zm2.568.266a.55.55 0 0 1 .152-.38.509.509 0 0 1 .732 0 .546.546 0 0 1 .152.38v7.103c0 .143-.055.28-.152.38a.509.509 0 0 1-.732 0 .547.547 0 0 1-.152-.38V6.93ZM17.84 4H6.161a1.875 1.875 0 0 0-.743.148A1.987 1.987 0 0 0 4.364 5.23a2.07 2.07 0 0 0-.151.768v11.986a2.025 2.025 0 0 0 .574 1.418c.181.186.396.332.631.432.236.1.488.15.743.148h11.678c.254.002.506-.048.742-.148a1.92 1.92 0 0 0 .63-.43c.181-.185.325-.406.424-.648a2.07 2.07 0 0 0 .152-.767V5.998a2.072 2.072 0 0 0-.15-.767 2.013 2.013 0 0 0-.423-.65 1.93 1.93 0 0 0-.63-.432c-.235-.1-.486-.15-.74-.149"/>
  </g>
  <defs>
    <clipPath id="a">
      <path fill="#fff" d="M0 0h16v16H0z" transform="translate(4 4)"/>
    </clipPath>
  </defs>
</svg>
