<svg xmlns="http://www.w3.org/2000/svg" width="24" height="24" fill="none" viewBox="0 0 24 24">
  <path fill="#5059C9" d="M15.16 10.141h4.133c.39 0 .707.317.707.707v3.765a2.598 2.598 0 0 1-2.6 2.597h-.012a2.598 2.598 0 0 1-2.598-2.598V10.51a.37.37 0 0 1 .369-.37Zm2.794-.744a1.674 1.674 0 1 0 0-3.349 1.674 1.674 0 0 0 0 3.35Z"/>
  <path fill="#7B83EB" d="M12.744 9.397a2.419 2.419 0 1 0 0-4.837 2.419 2.419 0 0 0 0 4.837Zm3.225.744H9.147a.7.7 0 0 0-.682.716v4.293a4.197 4.197 0 0 0 4.093 4.294 4.197 4.197 0 0 0 4.093-4.293v-4.294a.7.7 0 0 0-.682-.716Z"/>
  <path fill="#000" d="M12.93 10.141v6.017a.685.685 0 0 1-.68.681H8.791a4.531 4.531 0 0 1-.327-1.69v-4.293a.698.698 0 0 1 .681-.715h3.784Z" opacity=".1"/>
  <path fill="#000" d="M12.558 10.141v6.39a.685.685 0 0 1-.681.68h-2.91a4.829 4.829 0 0 1-.175-.372 4.531 4.531 0 0 1-.327-1.69v-4.293a.698.698 0 0 1 .681-.715h3.412Z" opacity=".2"/>
  <path fill="#000" d="M12.558 10.141v5.645a.686.686 0 0 1-.68.68H8.661a4.531 4.531 0 0 1-.197-1.316v-4.294a.698.698 0 0 1 .681-.715h3.412Z" opacity=".2"/>
  <path fill="#000" d="M12.186 10.141v5.645a.686.686 0 0 1-.681.68H8.662a4.531 4.531 0 0 1-.197-1.316v-4.294a.698.698 0 0 1 .681-.715h3.04Z" opacity=".2"/>
  <path fill="#000" d="M12.93 8.218V9.39c-.063.003-.123.007-.186.007s-.123-.004-.186-.007a2.419 2.419 0 0 1-2.166-1.853h1.857c.376.001.68.305.681.68Z" opacity=".1"/>
  <path fill="#000" d="M12.558 8.59v.8a2.419 2.419 0 0 1-2.046-1.48h1.365a.68.68 0 0 1 .681.68Z" opacity=".2"/>
  <path fill="#000" d="M12.558 8.59v.8a2.419 2.419 0 0 1-2.046-1.48h1.365a.68.68 0 0 1 .681.68Z" opacity=".2"/>
  <path fill="#000" d="M12.186 8.59v.74a2.419 2.419 0 0 1-1.674-1.421h.993c.376.001.68.305.681.68Z" opacity=".2"/>
  <path fill="url(#a)" d="M4.682 7.909h6.822c.377 0 .682.305.682.682v6.822a.682.682 0 0 1-.682.682H4.682A.682.682 0 0 1 4 15.413V8.59c0-.377.305-.682.682-.682Z"/>
  <path fill="#fff" d="M9.888 10.505H8.524v3.714h-.869v-3.714H6.298v-.72h3.59v.72Z"/>
  <path fill="#000" d="M4 4h16v16H4z" style="mix-blend-mode:saturation"/>
  <defs>
    <linearGradient id="a" x1="5.422" x2="10.764" y1="7.376" y2="16.628" gradientUnits="userSpaceOnUse">
      <stop stop-color="#5A62C3"/>
      <stop offset=".5" stop-color="#4D55BD"/>
      <stop offset="1" stop-color="#3940AB"/>
    </linearGradient>
  </defs>
</svg>
