<svg xmlns="http://www.w3.org/2000/svg" width="24" height="24" fill="none" viewBox="0 0 24 24">
  <g clip-path="url(#a)">
    <path fill="#000" d="M18.855 10.547a3.99 3.99 0 0 0-.344-3.273 4.03 4.03 0 0 0-4.34-1.934 4.043 4.043 0 0 0-6.85 1.448A3.99 3.99 0 0 0 4.656 8.72a4.03 4.03 0 0 0 .495 4.731 3.987 3.987 0 0 0 .34 3.274 4.034 4.034 0 0 0 4.343 1.934A3.991 3.991 0 0 0 12.84 20a4.038 4.038 0 0 0 3.848-2.804 3.992 3.992 0 0 0 2.665-1.933 4.037 4.037 0 0 0-.498-4.716Zm-6.015 8.406c-.7 0-1.38-.245-1.918-.694l.095-.054 3.186-1.838a.53.53 0 0 0 .261-.455v-4.49l1.347.778a.047.047 0 0 1 .025.035v3.722a3.003 3.003 0 0 1-2.996 2.996Zm-6.44-2.75a2.98 2.98 0 0 1-.357-2.01l.095.057 3.189 1.839a.514.514 0 0 0 .52 0l3.895-2.246v1.555a.055.055 0 0 1-.022.041L10.493 17.3A3 3 0 0 1 6.4 16.202Zm-.84-6.94A2.99 2.99 0 0 1 7.139 7.95v3.784a.51.51 0 0 0 .258.451l3.877 2.237-1.347.779a.05.05 0 0 1-.047 0l-3.22-1.858a3.003 3.003 0 0 1-1.1-4.095v.016Zm11.065 2.571-3.889-2.258L14.08 8.8a.05.05 0 0 1 .047 0l3.22 1.86a2.996 2.996 0 0 1-.45 5.404v-3.785a.526.526 0 0 0-.272-.445Zm1.34-2.015-.094-.057-3.183-1.854a.517.517 0 0 0-.523 0l-3.892 2.245V8.598a.044.044 0 0 1 .019-.04l3.22-1.858a3 3 0 0 1 4.453 3.106v.013Zm-8.427 2.756L8.19 11.8a.055.055 0 0 1-.025-.038V8.049a3 3 0 0 1 4.917-2.302l-.095.054-3.185 1.838a.53.53 0 0 0-.262.455l-.003 4.481Zm.732-1.577 1.734-1 1.738 1v2l-1.731 1-1.738-1-.003-2Z"/>
  </g>
  <defs>
    <clipPath id="a">
      <path fill="#fff" d="M0 0h16v16H0z" transform="translate(4 4)"/>
    </clipPath>
  </defs>
</svg>
