<svg xmlns="http://www.w3.org/2000/svg" width="24" height="24" fill="none" viewBox="0 0 24 24">
  <path fill="#5A17EE" fill-rule="evenodd" d="M16.485 7.06V6.04h-4.193v4.254H13.3v-1.28h2.18v1.276h1.006V7.056v.005Zm-1.006.936h-2.18v-.935h2.18v.935Zm-3.857 5.406v1.915h-4.11v-1.022h3.103V13.7H7.513v-2.638h4.108v1.021H8.52v.596h3.102v.723Zm4.863-1.321V11.06h-4.193v4.254H13.3v-1.281h2.18v1.276h1.006v-3.233.005Zm-1.006.936h-2.18v-.936h2.18v.936Z" clip-rule="evenodd"/>
  <path fill="#5A17EE" d="M17.407 5.106v11.12H15.67v1.896l-3.143-1.761-.246-.138H6.593V5.106H17.41h-.003ZM18.5 4h-13v13.332h6.498L16.758 20v-2.668h1.739V4h.003Z"/>
  <path fill="#5A17EE" fill-rule="evenodd" d="m10.273 8.675 1.287-.476.061-.025V6.042H7.513v.086l-.01 4.169H8.51v-.971l.755-.278 1.131 1.249h1.243l-1.366-1.622Zm-1.761-.436V7.063h2.103v.398l-2.103.778Z" clip-rule="evenodd"/>
</svg>
