<svg xmlns="http://www.w3.org/2000/svg" width="24" height="24" fill="none" viewBox="0 0 24 24">
  <path fill="#E01E5A" d="M7.362 14.11c0 .926-.756 1.681-1.681 1.681S4 15.036 4 14.111c0-.925.756-1.681 1.68-1.681h1.682v1.68Zm.847 0c0-.924.755-1.68 1.68-1.68.925 0 1.681.756 1.681 1.68v4.21c0 .924-.756 1.68-1.68 1.68a1.685 1.685 0 0 1-1.681-1.68v-4.21Z"/>
  <path fill="#36C5F0" d="M9.89 7.362c-.926 0-1.681-.756-1.681-1.681S8.964 4 9.889 4c.925 0 1.681.756 1.681 1.68v1.682H9.89Zm0 .847c.924 0 1.68.755 1.68 1.68 0 .925-.756 1.681-1.68 1.681H5.68c-.924 0-1.68-.756-1.68-1.68 0-.926.756-1.681 1.68-1.681h4.21Z"/>
  <path fill="#2EB67D" d="M16.639 9.89c0-.926.755-1.681 1.68-1.681.925 0 1.681.755 1.681 1.68 0 .925-.756 1.681-1.68 1.681h-1.681V9.89Zm-.848 0c0 .924-.755 1.68-1.68 1.68a1.685 1.685 0 0 1-1.681-1.68V5.68c0-.924.755-1.68 1.68-1.68.926 0 1.681.756 1.681 1.68v4.21Z"/>
  <path fill="#ECB22E" d="M14.11 16.638c.926 0 1.681.756 1.681 1.681S15.036 20 14.111 20a1.685 1.685 0 0 1-1.681-1.68v-1.682h1.68Zm0-.847c-.925 0-1.68-.755-1.68-1.68 0-.925.755-1.681 1.68-1.681h4.209c.925 0 1.68.756 1.68 1.68 0 .926-.755 1.681-1.68 1.681H14.11Z"/>
  <path fill="#000" d="M4 4h16v16H4z" style="mix-blend-mode:saturation"/>
</svg>
