<svg xmlns="http://www.w3.org/2000/svg" width="24" height="24" fill="none" viewBox="0 0 24 24">
  <path fill="#F12E45" d="M12 4c4.416 0 8 3.584 8 8s-3.584 8-8 8-8-3.584-8-8 3.584-8 8-8Zm0 2.112A5.873 5.873 0 0 0 6.112 12 5.873 5.873 0 0 0 12 17.888 5.873 5.873 0 0 0 17.888 12 5.873 5.873 0 0 0 12 6.112Zm1.984 6.208a1.664 1.664 0 1 1 0 3.328 1.664 1.664 0 0 1 0-3.328Zm-3.968 0a1.664 1.664 0 1 1 0 3.328 1.664 1.664 0 0 1 0-3.328Zm3.968-3.968a1.664 1.664 0 1 1 0 3.328 1.664 1.664 0 0 1 0-3.328Zm-3.968 0a1.664 1.664 0 1 1 0 3.328 1.664 1.664 0 0 1 0-3.328Z"/>
</svg>
