<svg xmlns="http://www.w3.org/2000/svg" width="24" height="24" fill="none" viewBox="0 0 24 24">
  <path fill="#2CB642" d="M17.608 6.32A7.857 7.857 0 0 0 12.005 4a7.949 7.949 0 0 0-6.869 3.963 7.936 7.936 0 0 0-.015 7.927L4 20l4.203-1.1c1.16.645 2.464.99 3.792 1A8.007 8.007 0 0 0 20 11.97a7.994 7.994 0 0 0-2.392-5.65Zm-5.603 12.21a6.587 6.587 0 0 1-3.362-.92l-.24-.15-2.492.66.66-2.43-.16-.25A6.597 6.597 0 0 1 7.91 6.803a6.607 6.607 0 0 1 8.759.467 6.648 6.648 0 0 1 2.001 4.66 6.666 6.666 0 0 1-6.664 6.6Zm3.612-4.94c-.2-.1-1.17-.58-1.35-.64-.18-.06-.32-.1-.45.1a8.99 8.99 0 0 1-.631.77c-.11.14-.23.15-.43 0a5.332 5.332 0 0 1-2.692-2.35c-.21-.35.2-.33.58-1.08a.38.38 0 0 0 0-.35c0-.1-.45-1.08-.61-1.47-.16-.39-.32-.33-.45-.34h-.39a.71.71 0 0 0-.531.25 2.19 2.19 0 0 0-.66 1.69c.062.748.344 1.461.81 2.05a8.894 8.894 0 0 0 3.392 3c.72.42 1.555.595 2.382.5a2 2 0 0 0 1.33-.94c.133-.294.175-.622.12-.94-.09-.1-.22-.15-.42-.25Z"/>
  <path fill="#000" d="M4 4h16v16H4z" style="mix-blend-mode:saturation"/>
</svg>
