<svg xmlns="http://www.w3.org/2000/svg" width="24" height="24" fill="currentColor" viewBox="0 0 24 24">
  <path fill="#656D75" fill-rule="evenodd" d="M4.776 11.226a.774.774 0 0 1 .772.776 6.432 6.432 0 0 0 7.166 6.408.774.774 0 0 1 .177 1.538A7.98 7.98 0 0 1 4 11.998a.774.774 0 0 1 .776-.772Zm12.564 1.606a1.998 1.998 0 0 1 1.704 3.04 1.96 1.96 0 0 1-1.251 3.319l-.154.006h-2.428a.774.774 0 0 1-.767-.669l-.007-.105v-4.817c0-.428.347-.774.774-.774h2.129Zm.3 3.995h-1.655v.821h1.654a.41.41 0 0 0 .083-.813l-.083-.008Zm-.3-2.447h-1.354v.898h1.354a.45.45 0 0 0 .08-.89l-.08-.008Zm-.001-8.349A7.98 7.98 0 0 1 20 12.002a.774.774 0 0 1-1.548-.004 6.432 6.432 0 0 0-7.167-6.408.774.774 0 0 1-.176-1.538 7.98 7.98 0 0 1 6.23 1.98Zm-9.196-1.63.03.001a.774.774 0 0 1 .163.024l.044.013a.72.72 0 0 1 .125.054l.024.013.021.013-.023-.013.05.03.045.033a.763.763 0 0 1 .17.188l.01.016.017.03.023.046 2.054 4.416a.774.774 0 0 1-1.354.745l-.05-.092-.377-.811H6.914l-.453.85a.774.774 0 0 1-1.41-.635l.044-.096 2.354-4.4.012-.023.034-.056.01-.014.033-.044a.749.749 0 0 1 .276-.215l.092-.036.043-.013a.821.821 0 0 1 .176-.024h.018ZM8.09 6.907l-.514.96h.96l-.446-.96Z" clip-rule="evenodd"/>
</svg>
