<svg xmlns="http://www.w3.org/2000/svg" width="24" height="24" fill="currentColor" viewBox="0 0 24 24">
  <path fill="#656D75" fill-rule="evenodd" d="M11.066 4.028a.75.75 0 0 1 .102 1.493l-.102.007H7.908a2.408 2.408 0 0 0-2.403 2.25l-.005.157v7.895c0 1.277.994 2.321 2.25 2.403l.158.005h7.895a2.408 2.408 0 0 0 2.402-2.25l.006-.158v-3.158a.75.75 0 0 1 1.493-.102l.006.102v3.158a3.908 3.908 0 0 1-3.706 3.903l-.201.005H7.908a3.908 3.908 0 0 1-3.903-3.707l-.005-.2V7.934a3.908 3.908 0 0 1 3.707-3.902l.2-.005h3.159Zm3.184 10.477a.75.75 0 0 1 0 1.5h-5.5a.75.75 0 0 1 0-1.5h5.5Zm-2-2.8a.75.75 0 0 1 0 1.5h-3.5a.75.75 0 0 1 0-1.5h3.5Zm-1.857-2.8a.75.75 0 0 1 0 1.5H8.75a.75.75 0 0 1 0-1.5h1.643ZM16.753 4c.31 0 .574.196.676.47l.034.122.011.13.001 1.548 1.549.001a.722.722 0 0 1 .13 1.432l-.13.012-1.55-.001v1.55a.722.722 0 0 1-1.432.13l-.011-.13v-1.55h-1.55a.722.722 0 0 1-.13-1.431l.13-.012h1.55V4.72c0-.398.323-.721.722-.721Z" clip-rule="evenodd"/>
</svg>
