<svg xmlns="http://www.w3.org/2000/svg" width="24" height="24" fill="currentColor" viewBox="0 0 24 24">
  <path fill="#656D75" fill-rule="evenodd" d="M16 4a4 4 0 0 1 4 4v8a4 4 0 0 1-4 4H8a4 4 0 0 1-4-4V8a4 4 0 0 1 4-4h8Zm0 1.5H8A2.5 2.5 0 0 0 5.5 8v8A2.5 2.5 0 0 0 8 18.5h8a2.5 2.5 0 0 0 2.5-2.5V8A2.5 2.5 0 0 0 16 5.5Zm-.245 6.004a.75.75 0 0 1 .75.75v2.751a.75.75 0 1 1-1.5 0v-2.751a.75.75 0 0 1 .75-.75Zm-4.932-3.252a1 1 0 0 1 .948.684l1.944 5.832a.75.75 0 0 1-1.423.474l-.351-1.054H9.064l-.35 1.054a.75.75 0 0 1-.85.5l-.1-.026a.75.75 0 0 1-.474-.948l1.944-5.831a1 1 0 0 1 .948-.684h.641Zm-.32 1.621-.939 2.815h1.877l-.938-2.815Zm5.252-.72.11.009.087.015a.8.8 0 0 1 .597.676l.006.1a.8.8 0 1 1-.997-.776l.095-.017.102-.007Z" clip-rule="evenodd"/>
</svg>
