<svg xmlns="http://www.w3.org/2000/svg" width="24" height="24" fill="currentColor" viewBox="0 0 24 24">
  <path fill="#656D75" fill-rule="evenodd" d="M13.5 7a1.5 1.5 0 1 1-3 0 1.5 1.5 0 0 1 3 0ZM15 7c0 .875-.374 1.662-.972 2.21l1.431 2.686a.75.75 0 0 1-1.324.705l-1.43-2.684A3 3 0 1 1 15 7Zm3.5 10a1.5 1.5 0 1 1-3 0 1.5 1.5 0 0 1 3 0Zm1.5 0a3 3 0 0 1-5.959.5h-2.293a.75.75 0 1 1 0-1.5h2.423A3.001 3.001 0 0 1 20 17ZM9.822 11.086a.75.75 0 0 1 .31 1.015L8.8 14.6a3 3 0 1 1-1.395-.572l1.403-2.633a.75.75 0 0 1 1.014-.309ZM8.5 17a1.5 1.5 0 1 1-3 0 1.5 1.5 0 0 1 3 0Z" clip-rule="evenodd"/>
</svg>
