<svg xmlns="http://www.w3.org/2000/svg" width="24" height="24" fill="currentColor" viewBox="0 0 24 24">
  <path fill="#656D75" fill-rule="evenodd" d="M12.382 5.135a3.878 3.878 0 0 1 5.482 0 3.873 3.873 0 0 1 0 5.48l-5.83 5.825a2.454 2.454 0 1 1-3.472-3.471l4.423-4.419a.75.75 0 1 1 1.06 1.061l-4.422 4.42a.954.954 0 1 0 1.351 1.348l5.83-5.825a2.373 2.373 0 0 0 0-3.358 2.378 2.378 0 0 0-3.362 0l-5.83 5.825a3.792 3.792 0 0 0 0 5.367 3.8 3.8 0 0 0 5.373 0l2.538-2.535a.75.75 0 1 1 1.06 1.06l-2.538 2.536a5.3 5.3 0 0 1-7.493 0 5.292 5.292 0 0 1 0-7.489l5.83-5.825Z" clip-rule="evenodd"/>
</svg>
