<svg xmlns="http://www.w3.org/2000/svg" width="24" height="24" fill="currentColor" viewBox="0 0 24 24">
  <path fill="#656D75" fill-rule="evenodd" d="M11.5 6.213c-.003-.383.126-.562.215-.631.08-.062.262-.14.617-.021l.003.001 3.246 1.064h.001c.22.073.457.249.642.5.185.253.276.524.276.742v.848c0 .356-.135.567-.27.67-.13.098-.348.167-.674.063l-3.24-1.13-.01-.004c-.428-.142-.806-.69-.806-1.243v-.859Zm.056 3.414a2.555 2.555 0 0 0 .271.11l3.243 1.13.015.006c.736.24 1.482.14 2.052-.293.564-.428.863-1.113.863-1.864v-.848c0-.6-.233-1.175-.567-1.63-.335-.456-.814-.849-1.38-1.036L16.05 5.2l-3.246-1.064c-.71-.236-1.44-.178-2.005.257-.555.428-.803 1.11-.799 1.826v6.029a3.75 3.75 0 1 0 1.5 3.104V9.6l.056.027ZM7.75 13a2.25 2.25 0 1 1 0 4.5 2.25 2.25 0 0 1 0-4.5Zm8.25.75a.75.75 0 1 1 1.5 0v1.75h1.75a.75.75 0 1 1 0 1.5H17.5v1.75a.75.75 0 0 1-1.5 0V17h-1.75a.75.75 0 0 1 0-1.5H16v-1.75Z" clip-rule="evenodd"/>
</svg>
