<svg xmlns="http://www.w3.org/2000/svg" width="24" height="24" fill="currentColor" viewBox="0 0 24 24">
  <path fill="#656D75" fill-rule="evenodd" d="M10 6c-.943 0-1.414 0-1.707.293C8 6.586 8 7.057 8 8v8c0 .943 0 1.414.293 1.707C8.586 18 9.057 18 10 18h4c1.761 0 3-1.624 3-3.375 0-.89-.307-1.76-.815-2.42a3.226 3.226 0 0 0-.86-.782c.424-.54.675-1.245.675-2.048C16 7.624 14.761 6 13 6h-3Zm-.5 5.04V8.2c0-.33 0-.495.103-.597.102-.103.267-.103.597-.103H13c.724 0 1.5.727 1.5 1.875 0 1.062-.697 1.665-1.5 1.665H9.5Zm.7 5.46c-.33 0-.495 0-.597-.102-.103-.103-.103-.268-.103-.598v-3.26H14c.327 0 .69.184.997.582.306.396.503.944.503 1.503 0 1.148-.776 1.875-1.5 1.875h-3.8Z" clip-rule="evenodd"/>
</svg>
