<svg xmlns="http://www.w3.org/2000/svg" width="24" height="24" fill="currentColor" viewBox="0 0 24 24">
  <path fill="#515A63" d="M10.2 3.482a.75.75 0 0 0-.331-1.463C5.364 3.04 2 7.069 2 11.884c0 1.806.474 3.503 1.305 4.973a.315.315 0 0 1 .035.252l-1.301 3.904a.75.75 0 0 0 .948.949l3.905-1.302a.315.315 0 0 1 .252.036A10.078 10.078 0 0 0 12.116 22c4.815 0 8.843-3.363 9.866-7.869a.75.75 0 1 0-1.463-.332 8.62 8.62 0 0 1-12.637 5.59 1.813 1.813 0 0 0-1.465-.152l-1.532.511c-.414.138-.621.207-.73.098-.11-.11-.04-.316.097-.73l.511-1.533a1.813 1.813 0 0 0-.153-1.465A8.62 8.62 0 0 1 10.2 3.481Zm4.164-1.463a.75.75 0 1 0-.332 1.463 8.63 8.63 0 0 1 6.487 6.487.75.75 0 0 0 1.463-.332 10.13 10.13 0 0 0-7.618-7.618ZM11.366 6.68a.75.75 0 0 1 .75-.75 5.953 5.953 0 0 1 5.953 5.953.75.75 0 1 1-1.5 0 4.453 4.453 0 0 0-4.453-4.453.75.75 0 0 1-.75-.75Zm.75 3.412a.75.75 0 1 0 0 1.5c.16 0 .29.13.29.291a.75.75 0 1 0 1.5 0 1.79 1.79 0 0 0-1.79-1.79Z"/>
</svg>
