<svg xmlns="http://www.w3.org/2000/svg" width="24" height="24" fill="currentColor" viewBox="0 0 24 24">
  <path fill="#D4D7D7" fill-rule="evenodd" d="M14.31 12.5c.123.315.188.654.188 1v1.3a2.75 2.75 0 0 1-1.25 5.2h-.5a3.75 3.75 0 0 1-3.75-3.75v-1.405a3.254 3.254 0 0 1 0-4.69V8.75A3.75 3.75 0 0 1 12.748 5h.5a2.75 2.75 0 0 1 1.25 5.2v1.3c0 .346-.065.685-.188 1Zm-2.125 5.407c.176.06.366.093.563.093h.5a.75.75 0 1 0 0-1.5h-.5a.25.25 0 0 1-.25-.25V13.5a.751.751 0 0 0-.3-.6l-.532-.4.533-.4a.751.751 0 0 0 .299-.6V8.75a.25.25 0 0 1 .25-.25h.5a.75.75 0 1 0 0-1.5h-.5a1.748 1.748 0 0 0-1.75 1.75v2.38l-.5.37c-.664.5-.664 1.5 0 2l.5.37v2.38c0 .77.497 1.423 1.187 1.657Z" clip-rule="evenodd"/>
  <path fill="#fff" fill-rule="evenodd" d="M12.426 13.18a.75.75 0 0 0-.227-.28l-.533-.4.533-.4a.75.75 0 0 0 .3-.6V8.75a.25.25 0 0 1 .25-.25h.499a.75.75 0 0 0 0-1.5h-.5a1.75 1.75 0 0 0-1.75 1.75v2.38l-.5.37c-.664.5-.664 1.5 0 2l.5.37v2.38c0 .966.784 1.75 1.75 1.75h.5a.75.75 0 0 0 0-1.5h-.5a.25.25 0 0 1-.25-.25V13.5a.752.752 0 0 0-.072-.32Zm-2.428 1.194-.1-.075a2.252 2.252 0 0 1 0-3.598l.005-.004.095-.07V8.75A2.75 2.75 0 0 1 12.748 6h.5a1.75 1.75 0 0 1 .25 3.482V11.5c0 .361-.112.71-.313 1 .201.29.313.639.313 1v2.018a1.75 1.75 0 0 1-.25 3.482h-.5a2.75 2.75 0 0 1-2.75-2.75v-1.876Z" clip-rule="evenodd"/>
  <path fill="#656D75" fill-rule="evenodd" d="M10.998 8.75c0-.967.784-1.75 1.75-1.75h.5a.75.75 0 1 1 0 1.5h-.5a.25.25 0 0 0-.25.25v2.75c0 .236-.11.458-.3.6l-.532.4.533.4a.752.752 0 0 1 .299.6v2.75c0 .138.112.25.25.25h.5a.75.75 0 1 1 0 1.5h-.5a1.75 1.75 0 0 1-1.75-1.75v-2.38l-.5-.37c-.664-.5-.664-1.5 0-2l.5-.37V8.75Z" clip-rule="evenodd"/>
</svg>
