<svg xmlns="http://www.w3.org/2000/svg" width="24" height="24" fill="currentColor" viewBox="0 0 24 24">
  <path fill="#656D75" fill-rule="evenodd" d="M12.055 4.689a3.153 3.153 0 0 1 5.034 1.736c.008.034.035.062.062.068a3.556 3.556 0 0 1 2.25 5.458c-.02.027-.02.063.004.097a3.553 3.553 0 0 1-2.246 5.45c-.035.007-.062.034-.073.083a3.151 3.151 0 0 1-5.035 1.727.083.083 0 0 0-.106.003 3.153 3.153 0 0 1-2.987.52 3.136 3.136 0 0 1-2.035-2.21l-.015-.057a.09.09 0 0 0-.059-.057 3.556 3.556 0 0 1-2.25-5.458c.02-.027.02-.063-.005-.098a3.553 3.553 0 0 1 2.247-5.449c.035-.007.063-.034.074-.084a3.151 3.151 0 0 1 5.034-1.722c.03.024.072.024.095.004l.01-.011ZM10.91 5.737a1.699 1.699 0 0 0-2.579 1.007 1.549 1.549 0 0 1-1.194 1.182l-.156.038A2.101 2.101 0 0 0 5.8 11.138l.082.134a1.53 1.53 0 0 1-.076 1.59l-.09.149a2.098 2.098 0 0 0 1.43 3.073l.14.037c.46.144.828.5 1.005.996l.081.282a1.697 1.697 0 0 0 2.662.778l.116-.085c.166-.11.348-.185.535-.224V6.136a1.521 1.521 0 0 1-.532-.222l-.242-.177Zm3.66-.191a1.699 1.699 0 0 0-1.609.28L13 5.797v12.405l.09.064c.387.255.863.34 1.315.234l.168-.048c.549-.19.963-.645 1.095-1.196a1.549 1.549 0 0 1 1.194-1.182l.156-.038a2.101 2.101 0 0 0 1.18-3.176l-.08-.133a1.53 1.53 0 0 1 .076-1.589l.09-.148a2.098 2.098 0 0 0-1.43-3.074l-.134-.035a1.537 1.537 0 0 1-1.048-1.13 1.696 1.696 0 0 0-1.1-1.205ZM16.358 13a.643.643 0 0 1 .095 1.279l-.095.007c-.552 0-1.007.418-1.065.954l-.007.117a.643.643 0 1 1-1.285 0A2.357 2.357 0 0 1 16.357 13Zm-8.714 0A2.357 2.357 0 0 1 10 15.357a.643.643 0 0 1-1.278.095l-.007-.095c0-.552-.418-1.007-.955-1.065l-.117-.006a.643.643 0 0 1 0-1.286Zm1.714-5c.355 0 .643.288.643.643A2.357 2.357 0 0 1 7.643 11a.643.643 0 0 1-.095-1.279l.095-.007c.552 0 1.007-.418 1.065-.954l.007-.117c0-.355.287-.643.642-.643Zm5.286 0c.322 0 .59.238.635.548l.007.095c0 .552.418 1.007.956 1.065l.116.006a.643.643 0 0 1 0 1.286A2.357 2.357 0 0 1 14 8.643c0-.355.288-.643.643-.643Z" clip-rule="evenodd"/>
</svg>
