<svg xmlns="http://www.w3.org/2000/svg" width="24" height="24" fill="currentColor" viewBox="0 0 24 24">
  <path fill="#656D75" fill-rule="evenodd" d="M5.75 5a.75.75 0 0 0 0 1.5h1.5a.75.75 0 0 0 0-1.5h-1.5Zm4 0a.75.75 0 0 0 0 1.5h8.5a.75.75 0 0 0 0-1.5h-8.5Zm-4 3.5a.75.75 0 0 0 0 1.5h1.5a.75.75 0 0 0 0-1.5h-1.5Zm4 0a.75.75 0 0 0 0 1.5h8.5a.75.75 0 0 0 0-1.5h-8.5ZM5 12.75a.75.75 0 0 1 .75-.75h1.5a.75.75 0 0 1 0 1.5h-1.5a.75.75 0 0 1-.75-.75Zm4 0a.75.75 0 0 1 .75-.75h1.5a.75.75 0 0 1 0 1.5h-1.5a.75.75 0 0 1-.75-.75Zm7.281-.53a.75.75 0 0 0-.53-.22h-.001a.748.748 0 0 0-.553.243L12.72 14.72a.75.75 0 1 0 1.06 1.06L15 14.561v3.689a.75.75 0 0 0 1.5 0v-3.69l1.22 1.22a.75.75 0 1 0 1.06-1.06l-2.499-2.5Z" clip-rule="evenodd"/>
</svg>
