<svg xmlns="http://www.w3.org/2000/svg" width="24" height="24" fill="currentColor" viewBox="0 0 24 24">
  <path fill="#656D75" fill-rule="evenodd" d="M5.5 6.75c0-.69.56-1.25 1.25-1.25h.5a.75.75 0 0 0 0-1.5h-.5A2.75 2.75 0 0 0 4 6.75v.5a.75.75 0 0 0 1.5 0v-.5ZM16.75 4a.75.75 0 0 0 0 1.5h.5c.69 0 1.25.56 1.25 1.25v.5a.75.75 0 0 0 1.5 0v-.5A2.75 2.75 0 0 0 17.25 4h-.5ZM5.5 16.75a.75.75 0 0 0-1.5 0v.5A2.75 2.75 0 0 0 6.75 20h.5a.75.75 0 0 0 0-1.5h-.5c-.69 0-1.25-.56-1.25-1.25v-.5Zm14.5 0a.75.75 0 0 0-1.5 0v.5c0 .69-.56 1.25-1.25 1.25h-.5a.75.75 0 0 0 0 1.5h.5A2.75 2.75 0 0 0 20 17.25v-.5Zm-8.929-9.319a.75.75 0 0 1 .998-.36C13.826 7.896 15 9.823 15 12c0 2.177-1.174 4.104-2.931 4.929a.75.75 0 0 1-.638-1.358C12.608 15.019 13.5 13.659 13.5 12c0-1.659-.892-3.019-2.069-3.571a.75.75 0 0 1-.36-.998ZM9.05 9.481a.75.75 0 0 1 .968-.431C11.191 9.499 12 10.663 12 12c0 1.337-.81 2.501-1.982 2.95a.75.75 0 0 1-.536-1.4c.578-.222 1.018-.82 1.018-1.55 0-.73-.44-1.328-1.018-1.55a.75.75 0 0 1-.432-.968Z" clip-rule="evenodd"/>
</svg>
