<svg xmlns="http://www.w3.org/2000/svg" width="24" height="24" fill="currentColor" viewBox="0 0 24 24">
  <path fill="#656D75" fill-rule="evenodd" d="m18.02 11.679-.266 1.26c-.247 1.17-.41 1.925-.592 2.478-.173.524-.31.687-.404.767-.107.093-.226.17-.354.23-.112.052-.317.111-.866.055-.58-.06-1.335-.222-2.502-.475-1.159-.25-1.906-.415-2.453-.599-.519-.174-.68-.311-.76-.404a1.5 1.5 0 0 1-.228-.353c-.052-.11-.11-.314-.057-.859.057-.574.215-1.323.461-2.482l.268-1.26c.247-1.163.41-1.914.591-2.464.173-.521.31-.683.403-.764a1.5 1.5 0 0 1 .354-.23c.111-.051.315-.111.861-.057.576.057 1.328.215 2.491.462 1.162.247 1.912.408 2.46.59.521.173.683.31.764.402a1.5 1.5 0 0 1 .23.353c.051.112.11.315.057.861-.056.576-.213 1.327-.458 2.489ZM9.47 6.993c.207-.589.449-1.004.805-1.315a3.01 3.01 0 0 1 .708-.46c.908-.422 2.038-.182 4.296.298 2.256.48 3.384.719 4.043 1.473.185.213.34.45.46.707.421.907.183 2.036-.294 4.293l-.266 1.26c-.48 2.272-.72 3.407-1.479 4.068-.214.186-.453.34-.71.46-.773.357-1.704.235-3.349-.109A2.75 2.75 0 0 1 11.328 19H8.7c-.9 0-1.649 0-2.244-.08-.628-.085-1.195-.27-1.65-.726-.456-.456-.642-1.023-.726-1.651C4 15.948 4 15.198 4 14.299v-2.605c0-.899 0-1.649.08-2.244.084-.628.27-1.195.726-1.65.455-.456 1.022-.642 1.65-.727.595-.08 1.345-.08 2.244-.08h.77Zm-.404 1.501c-.083.368-.17.777-.267 1.231l-.268 1.26c-.478 2.251-.718 3.377-.298 4.284a3 3 0 0 0 .456.706c.58.67 1.531.937 3.31 1.33a1.244 1.244 0 0 1-.671.194H8.752c-.965 0-1.612-.002-2.096-.066-.461-.063-.659-.17-.79-.3-.13-.13-.237-.328-.299-.79-.065-.483-.066-1.131-.066-2.096v-2.501c0-.965.001-1.613.066-2.096.062-.461.17-.66.3-.79.13-.13.328-.237.79-.3.483-.064 1.13-.066 2.095-.066h.314Z" clip-rule="evenodd"/>
</svg>
