<svg xmlns="http://www.w3.org/2000/svg" width="24" height="24" fill="currentColor" viewBox="0 0 24 24">
  <path fill="#656D75" fill-rule="evenodd" d="m11.15 12.565 3.982-3.436a.515.515 0 0 1 .725.044.56.56 0 0 1 0 .748l-4.379 4.76a.952.952 0 0 1-1.486-.076l-1.87-1.958a.618.618 0 0 1 .035-.781.532.532 0 0 1 .735-.058l1.338.773a.71.71 0 0 0 .92-.016Z" clip-rule="evenodd"/>
  <path fill="#656D75" fill-rule="evenodd" d="M12 4a8 8 0 1 0 0 16 8 8 0 0 0 0-16Zm0 1.5a6.5 6.5 0 1 0 0 13 6.5 6.5 0 0 0 0-13Z" clip-rule="evenodd"/>
</svg>
