<svg xmlns="http://www.w3.org/2000/svg" width="24" height="24" fill="currentColor" viewBox="0 0 24 24">
  <path fill="#656D75" fill-rule="evenodd" d="M17.262 4.93a.75.75 0 0 1 1.057.082l1.496 1.745a.747.747 0 0 1 .001.985L18.32 9.488a.75.75 0 1 1-1.139-.976L17.62 8h-2.85a2.25 2.25 0 0 0-1.97 1.162l-3.538 6.402A3.75 3.75 0 0 1 5.98 17.5H4.75a.75.75 0 1 1 0-1.5h1.23a2.25 2.25 0 0 0 1.97-1.162l3.538-6.402A3.75 3.75 0 0 1 14.77 6.5h2.85l-.44-.512a.75.75 0 0 1 .082-1.057Zm-5.072 9.321a.75.75 0 0 1 1.059-.061l1.397 1.244c.412.367.944.57 1.496.57h1.475l-.437-.516a.75.75 0 1 1 1.14-.976l1.5 1.75c.12.14.18.312.18.485v.006a.748.748 0 0 1-.22.532l-1.46 1.703a.75.75 0 0 1-1.14-.976l.431-.509h-1.469a3.75 3.75 0 0 1-2.494-.949l-1.397-1.244a.75.75 0 0 1-.061-1.059Z" clip-rule="evenodd"/>
</svg>
