<svg xmlns="http://www.w3.org/2000/svg" width="24" height="24" fill="currentColor" viewBox="0 0 24 24">
  <path fill="#656D75" fill-rule="evenodd" d="M7.239 4c.357 0 .647.293.647.655a1.88 1.88 0 0 0 1.872 1.89c.357 0 .647.293.647.655a.652.652 0 0 1-.56.649l-.087.006a1.881 1.881 0 0 0-1.872 1.89c0 .362-.29.655-.647.655l-.036-.001a.651.651 0 0 1-.684-.654 1.88 1.88 0 0 0-1.871-1.89A.651.651 0 0 1 4 7.2c0-.362.29-.655.648-.655a1.881 1.881 0 0 0 1.87-1.89c0-.362.29-.655.649-.655l.035.001A.652.652 0 0 1 7.24 4Zm-.037 2.545-.055.075a3.202 3.202 0 0 1-.58.58c.242.186.456.407.636.655a3.18 3.18 0 0 1 .636-.655 3.187 3.187 0 0 1-.637-.655Z" clip-rule="evenodd"/>
  <path fill="#656D75" d="M18.32 5.212a.75.75 0 0 0-1.14.976l.44.512h-2.85c-1.365 0-2.622 1.742-3.282 2.936L7.95 15.038A2.25 2.25 0 0 1 5.98 16.2H4.75a.75.75 0 0 0 0 1.5h1.23a3.75 3.75 0 0 0 3.282-1.936l3.538-5.402.058-.106c.41-.743 1.131-2.056 1.912-2.056h2.85l-.44.512a.75.75 0 0 0 1.14.976l1.496-1.746a.747.747 0 0 0-.001-.985l-1.496-1.745Zm-5.071 9.178a.75.75 0 0 0-.998 1.12l1.397 1.244a3.75 3.75 0 0 0 2.494.95h1.47l-.431.508a.75.75 0 0 0 1.138.976l1.46-1.703a.748.748 0 0 0 .221-.532v-.006a.748.748 0 0 0-.18-.485l-1.5-1.75a.75.75 0 1 0-1.14.976l.437.515h-1.475a2.25 2.25 0 0 1-1.496-.57l-1.397-1.243Z"/>
</svg>
