<svg xmlns="http://www.w3.org/2000/svg" width="24" height="24" fill="currentColor" viewBox="0 0 24 24">
  <path fill="#656D75" fill-rule="evenodd" d="M15.8 9.263c.28-.282.26-.759-.022-1.04-.281-.281-.758-.302-1.04-.021l-2.49 2.507a.339.339 0 0 1-.478 0L9.275 8.215a.726.726 0 0 0-1.026 0l-.036.035a.726.726 0 0 0 0 1.027l2.495 2.494a.328.328 0 0 1-.009.47l-2.481 2.482c-.281.281-.26.758.021 1.04.281.28.758.302 1.04.02l2.48-2.48c.133-.133.314-.167.446-.035l2.521 2.521a.725.725 0 0 0 1.026 0l.036-.035a.726.726 0 0 0 0-1.027l-2.521-2.52c-.132-.133-.099-.313.034-.446l2.498-2.498Z" clip-rule="evenodd"/>
</svg>
