<svg xmlns="http://www.w3.org/2000/svg" width="24" height="24" fill="currentColor" viewBox="0 0 24 24">
  <path fill="#656D75" fill-rule="evenodd" d="M16.748 8.32a.773.773 0 1 0-1.093-1.094l-3.389 3.39a.363.363 0 0 1-.514 0L8.368 7.23a.779.779 0 0 0-1.101 0l-.039.038a.779.779 0 0 0 0 1.101l3.385 3.385a.364.364 0 0 1 0 .514l-3.37 3.37a.773.773 0 1 0 1.092 1.093l3.37-3.37a.363.363 0 0 1 .514 0l3.413 3.412a.779.779 0 0 0 1.101 0l.039-.038a.779.779 0 0 0 0-1.101l-3.413-3.413a.363.363 0 0 1 0-.514l3.389-3.389Z" clip-rule="evenodd"/>
</svg>
