<svg xmlns="http://www.w3.org/2000/svg" width="24" height="24" fill="currentColor" viewBox="0 0 24 24">
  <path fill="#656D75" fill-rule="evenodd" d="M5.5 12a6.5 6.5 0 1 1 13 0 6.5 6.5 0 1 1-13 0ZM12 4a8 8 0 0 0-8 8 8 8 0 0 0 8 8 8 8 0 0 0 8-8 8 8 0 0 0-8-8Zm-1.193 5.248a.75.75 0 0 1-.055 1.06L8.872 12l1.88 1.693a.75.75 0 1 1-1.004 1.114l-2.5-2.25a.75.75 0 0 1 0-1.114l2.5-2.25a.75.75 0 0 1 1.06.055Zm2.386 0a.75.75 0 0 1 1.059-.055l2.5 2.25a.75.75 0 0 1 0 1.115l-2.5 2.25a.75.75 0 1 1-1.004-1.115L15.128 12l-1.88-1.693a.75.75 0 0 1-.055-1.059Z" clip-rule="evenodd"/>
</svg>
