<svg xmlns="http://www.w3.org/2000/svg" width="24" height="24" fill="currentColor" viewBox="0 0 24 24">
  <path fill="#656D75" fill-rule="evenodd" d="M8.833 8.3a.833.833 0 1 0 0 1.666h.834v-.833a.833.833 0 0 0-.834-.833ZM7 9.133a1.833 1.833 0 1 1 3.667 0v.832h1.665v-.832a1.834 1.834 0 1 1 1.834 1.834h-.834v1.666h.834a1.833 1.833 0 1 1-1.834 1.833v-.835h-1.665v.835a1.835 1.835 0 0 1-3.667 0c0-1.013.82-1.834 1.833-1.834h.833v-1.666h-.833A1.833 1.833 0 0 1 7 9.133Zm3.666 1.832v1.666h1.666v-1.666h-1.666ZM8 14.465c0-.46.373-.833.833-.833h.834v.833a.834.834 0 0 1-1.667 0Zm6.166.834a.834.834 0 0 0 0-1.666h-.834v.833c0 .46.373.833.834.833Zm-.834-5.332v-.833a.834.834 0 1 1 .834.833h-.834Z" clip-rule="evenodd"/>
</svg>
