<svg xmlns="http://www.w3.org/2000/svg" width="24" height="24" fill="currentColor" viewBox="0 0 24 24">
  <path fill="#656D75" fill-rule="evenodd" d="M11.998 20A7.988 7.988 0 0 1 4 12c0-4.426 3.571-8 8-8s8 3.574 8 8-3.571 8-8 8h-.002ZM10.451 5.58a6.592 6.592 0 0 0-4.267 3.288h2.713a11.08 11.08 0 0 1 1.554-3.289ZM5.4 12c0-.6.08-1.182.228-1.735h2.965a11.494 11.494 0 0 0 0 3.47H5.628A6.648 6.648 0 0 1 5.4 12Zm.784 3.132a6.592 6.592 0 0 0 4.267 3.289 11.08 11.08 0 0 1-1.554-3.289H6.184Zm4.177 0A9.634 9.634 0 0 0 12 18.157a9.634 9.634 0 0 0 1.639-3.025H10.36Zm4.742 0a11.08 11.08 0 0 1-1.554 3.289 6.592 6.592 0 0 0 4.267-3.289h-2.713Zm3.269-1.397h-2.965a11.493 11.493 0 0 0 0-3.47h2.965c.149.553.228 1.134.228 1.735 0 .6-.08 1.182-.229 1.735Zm-4.383 0H10.01a10.11 10.11 0 0 1 0-3.47h3.978c.2 1.146.2 2.324 0 3.47Zm1.114-4.867h2.713a6.592 6.592 0 0 0-4.267-3.289 11.081 11.081 0 0 1 1.554 3.289ZM12 5.843a9.633 9.633 0 0 0-1.639 3.025h3.278A9.633 9.633 0 0 0 12 5.843Z" clip-rule="evenodd"/>
</svg>
