<svg xmlns="http://www.w3.org/2000/svg" width="24" height="24" fill="currentColor" viewBox="0 0 24 24">
  <path fill="#656D75" fill-rule="evenodd" d="M16.667 4a3.083 3.083 0 0 1 3.083 3.083v7a3.083 3.083 0 0 1-3.083 3.084l-2.105-.001L13.3 18.85a1.625 1.625 0 0 1-2.503.118l-.097-.118-1.263-1.684H7.333a3.083 3.083 0 0 1-3.078-2.902l-.005-.18v-7A3.083 3.083 0 0 1 7.333 4h9.334Zm0 1.5H7.333c-.874 0-1.583.709-1.583 1.583v7c0 .875.709 1.584 1.583 1.584h2.48a.75.75 0 0 1 .6.3L11.9 17.95c.05.067.15.067.2 0l1.487-1.983a.75.75 0 0 1 .6-.3h2.48c.874 0 1.583-.71 1.583-1.584v-7c0-.874-.709-1.583-1.583-1.583Zm-3.917 5.667a.75.75 0 0 1 0 1.5h-3.5a.75.75 0 1 1 0-1.5h3.5Zm2-2.917a.75.75 0 0 1 0 1.5h-5.5a.75.75 0 0 1 0-1.5h5.5Z" clip-rule="evenodd"/>
</svg>
