<svg xmlns="http://www.w3.org/2000/svg" width="24" height="24" fill="currentColor" viewBox="0 0 24 24">
  <path fill="#656D75" fill-rule="evenodd" d="M13.324 6.043a1.886 1.886 0 0 0-2.647-.001l-1.79 1.79 3.11 3.11L15.11 7.83l-1.785-1.785-.001-.001Zm2.847 2.847-3.114 3.113 3.11 3.11 1.791-1.79a1.886 1.886 0 0 0 0-2.647h-.002L16.171 8.89Zm-5.235 3.113-3.11-3.11-1.782 1.782-.001.001a1.886 1.886 0 0 0-.001 2.647l1.787 1.787 3.107-3.107ZM8.89 16.171l3.106-3.107 3.11 3.11-1.783 1.784a1.886 1.886 0 0 1-2.647 0v-.002L8.89 16.171Zm-1.531.59 2.257 2.258.002.002c1.314 1.304 3.456 1.307 4.766-.002l4.635-4.635c1.31-1.31 1.306-3.452.002-4.766l-4.637-4.637-.002-.002c-1.314-1.304-3.456-1.307-4.766.002L7.313 7.285a.764.764 0 0 0-.035.035L4.981 9.616l-.002.002c-1.304 1.314-1.307 3.456.002 4.766l2.257 2.257a.766.766 0 0 0 .12.12Z" clip-rule="evenodd"/>
</svg>
