<svg xmlns="http://www.w3.org/2000/svg" width="24" height="24" fill="currentColor" viewBox="0 0 24 24">
  <path fill="#656D75" fill-rule="evenodd" d="M9.816 6.309c.518-.314.858-.52 1.138-.652.264-.125.417-.157.546-.157.129 0 .281.032.546.157.28.133.62.338 1.138.652l2.75 1.666c.483.293.8.486 1.031.659.22.163.314.275.374.38.06.106.106.246.132.517.028.288.029.659.029 1.224v2.493c0 .565 0 .935-.029 1.223-.026.272-.072.411-.132.517-.06.106-.155.218-.373.381-.232.173-.549.366-1.032.659l-2.75 1.666c-.518.314-.858.52-1.138.652-.264.125-.417.157-.546.157-.13 0-.282-.032-.546-.157-.28-.133-.62-.338-1.138-.652l-2.75-1.666c-.483-.293-.8-.486-1.032-.659-.218-.163-.313-.275-.373-.38-.06-.107-.106-.246-.132-.518-.028-.288-.029-.658-.029-1.223v-2.493c0-.565 0-.936.029-1.224.026-.271.072-.41.132-.517.06-.105.155-.217.374-.38.231-.174.548-.366 1.03-.659l2.75-1.666ZM11.5 4c-.43 0-.809.121-1.189.302-.357.17-.763.415-1.241.705L6.26 6.71c-.447.27-.826.5-1.123.722-.316.236-.585.495-.783.846-.198.351-.28.716-.318 1.109C4 9.756 4 10.199 4 10.72v2.562c0 .521 0 .965.036 1.334.038.393.12.757.318 1.109.198.35.467.61.783.846.297.222.676.452 1.122.722l2.81 1.703c.479.29.885.536 1.242.705.38.18.76.302 1.189.302.43 0 .809-.122 1.189-.302.357-.17.763-.416 1.241-.705l2.81-1.703c.447-.27.826-.5 1.123-.722.316-.236.585-.495.783-.847.198-.35.28-.715.318-1.108.036-.369.036-.812.036-1.334V10.72c0-.52 0-.964-.036-1.333-.038-.393-.12-.758-.318-1.109-.198-.35-.467-.61-.783-.846-.297-.222-.677-.452-1.122-.722l-2.81-1.703c-.479-.29-.885-.536-1.242-.705-.38-.18-.76-.302-1.19-.302Zm4.136 6.397a.75.75 0 0 0-.771-1.286l-3.108 1.862a.5.5 0 0 1-.514 0L8.137 9.11a.75.75 0 1 0-.771 1.286l3.141 1.883a.5.5 0 0 1 .243.43v3.544a.75.75 0 0 0 1.5 0v-3.545a.5.5 0 0 1 .243-.428l3.143-1.884Z" clip-rule="evenodd"/>
</svg>
