<svg xmlns="http://www.w3.org/2000/svg" width="24" height="24" fill="currentColor" viewBox="0 0 24 24">
  <path fill="#656D75" fill-rule="evenodd" d="M9.5 4.75a.75.75 0 0 0-1.5 0v.349a9.845 9.845 0 0 0-.157.018c-.965.12-1.768.376-2.425.964l-.046.042-.047.043a4.292 4.292 0 0 0-.244.252c-.587.657-.843 1.46-.964 2.425C4 9.778 4 10.963 4 12.448v.104c0 1.484 0 2.67.117 3.605.12.965.377 1.767.964 2.425.106.119.218.231.337.337.657.587 1.46.843 2.425.964.935.117 2.12.117 3.605.117h1.104c1.485 0 2.67 0 3.605-.117.965-.12 1.768-.377 2.425-.964a4.27 4.27 0 0 0 .337-.337c.588-.658.843-1.46.964-2.425.117-.935.117-2.12.117-3.605v-.104c0-1.485 0-2.67-.117-3.605-.12-.965-.376-1.768-.964-2.425a4.26 4.26 0 0 0-.337-.337c-.657-.588-1.46-.843-2.425-.964l-.071-.009-.086-.01V4.75a.75.75 0 0 0-1.5 0v.263C13.917 5 13.27 5 12.552 5h-1.104c-.717 0-1.365 0-1.948.013V4.75Zm5 2v-.236a90.676 90.676 0 0 0-2-.014h-1a128.03 128.03 0 0 0-2 .014v.236a.75.75 0 0 1-1.5 0v-.14c-.795.102-1.248.29-1.582.59-.077.068-.15.14-.219.218-.299.334-.487.787-.59 1.582h12.782c-.103-.795-.291-1.248-.59-1.582a2.734 2.734 0 0 0-.218-.219c-.335-.299-.788-.487-1.583-.59v.141a.75.75 0 0 1-1.5 0Zm-9 5.75c0-.772 0-1.43.014-2h12.973c.007.34.01.71.012 1.117l.001.883c0 1.548-.001 2.64-.105 3.47-.102.814-.292 1.274-.595 1.612a2.36 2.36 0 0 1-.218.218c-.338.303-.798.493-1.611.595-.832.104-1.923.105-3.471.105h-1c-1.548 0-2.64-.001-3.47-.105-.814-.102-1.274-.292-1.612-.595a2.23 2.23 0 0 1-.095-.088 2.87 2.87 0 0 1-.124-.13c-.302-.338-.492-.798-.594-1.611-.104-.832-.105-1.923-.105-3.471Zm3.25 1a.75.75 0 1 0 0-1.5.75.75 0 0 0 0 1.5Zm.75 2.25a.75.75 0 1 1-1.5 0 .75.75 0 0 1 1.5 0Zm2.25-2.25a.75.75 0 1 0 0-1.5.75.75 0 0 0 0 1.5Zm.75 2.25a.75.75 0 1 1-1.5 0 .75.75 0 0 1 1.5 0Zm2.25-2.25a.75.75 0 1 0 0-1.5.75.75 0 0 0 0 1.5Z" clip-rule="evenodd"/>
</svg>
