<svg xmlns="http://www.w3.org/2000/svg" width="24" height="24" fill="currentColor" viewBox="0 0 24 24">
  <path fill="#515A63" fill-rule="evenodd" d="M3.5 4.75c0-.69.56-1.25 1.25-1.25h3.5a.75.75 0 0 0 0-1.5h-3.5A2.75 2.75 0 0 0 2 4.75v3.5a.75.75 0 0 0 1.5 0v-3.5Zm18.5 10a.75.75 0 0 0-1.5 0v4.5c0 .684-.565 1.25-1.254 1.25H15.75a.75.75 0 0 0 0 1.5h3.496A2.758 2.758 0 0 0 22 19.25v-4.5ZM4.25 13a.75.75 0 0 0-.75.75v3c0 .414.336.75.75.75h5.5a.75.75 0 0 0 .75-.75v-3a.75.75 0 0 0-.75-.75h-5.5ZM2 13.75a2.25 2.25 0 0 1 2.25-2.25h5.5A2.25 2.25 0 0 1 12 13.75v3A2.25 2.25 0 0 1 9.75 19h-2v1.5h1.5a.75.75 0 0 1 0 1.5h-4.5a.75.75 0 0 1 0-1.5h1.5V19h-2A2.25 2.25 0 0 1 2 16.75v-3ZM16.5 2c-1.453 0-2.678.89-3.25 2.14C11.936 4.536 11 5.791 11 7.25c0 1.759 1.364 3.25 3.125 3.25h5.225c1.5 0 2.65-1.268 2.65-2.75 0-1.244-.81-2.336-1.955-2.656C19.749 3.36 18.302 2 16.5 2Zm-1.982 3.014C14.809 4.111 15.604 3.5 16.5 3.5c1.124 0 2.1.97 2.1 2.25 0 .414.336.75.75.75.6 0 1.15.522 1.15 1.25 0 .727-.55 1.25-1.15 1.25h-5.225c-.861 0-1.625-.747-1.625-1.75 0-.91.64-1.613 1.41-1.724a.75.75 0 0 0 .608-.512Z" clip-rule="evenodd"/>
</svg>
