<svg xmlns="http://www.w3.org/2000/svg" width="24" height="24" fill="currentColor" viewBox="0 0 24 24">
  <path fill="#656D75" fill-rule="evenodd" d="M16.88 7.119a2.134 2.134 0 0 0-3.005 0L11.983 9a.75.75 0 0 1-1.058-1.064l1.893-1.882a3.634 3.634 0 0 1 5.12 0 3.596 3.596 0 0 1 0 5.103l-1.893 1.883a.75.75 0 0 1-1.058-1.064l1.893-1.882a2.096 2.096 0 0 0 0-2.976Zm-7.864 3.844a.75.75 0 0 1-.003 1.06L7.12 13.906a2.096 2.096 0 0 0 0 2.976 2.134 2.134 0 0 0 3.005 0l1.892-1.883a.75.75 0 1 1 1.058 1.064l-1.893 1.882a3.634 3.634 0 0 1-5.12 0 3.596 3.596 0 0 1 0-5.103l1.893-1.882a.75.75 0 0 1 1.06.003ZM5.22 5.22a.75.75 0 0 1 1.06 0l1.5 1.5a.75.75 0 0 1-1.06 1.06l-1.5-1.5a.75.75 0 0 1 0-1.06Zm11 11a.75.75 0 0 1 1.06 0l1.5 1.5a.75.75 0 0 1-1.06 1.06l-1.5-1.5a.75.75 0 0 1 0-1.06Z" clip-rule="evenodd"/>
</svg>
