<svg xmlns="http://www.w3.org/2000/svg" width="24" height="24" fill="currentColor" viewBox="0 0 24 24">
  <path fill="#515A63" d="M15.535 10.768a3.132 3.132 0 0 0-4.343-.083l-.562.56a.75.75 0 0 0 1.06 1.062l.547-.547a1.632 1.632 0 0 1 2.305 2.304l-.547.547a.75.75 0 1 0 1.06 1.061l.562-.561a3.132 3.132 0 0 0-.082-4.344Z"/>
  <path fill="#515A63" d="M13.934 13.427a.75.75 0 0 0-1.06-1.06l-2.807 2.806a.75.75 0 0 0 1.061 1.06l2.806-2.806Z"/>
  <path fill="#515A63" d="M10.007 13.99a.75.75 0 1 0-1.06-1.062l-.562.561a3.132 3.132 0 0 0 4.425 4.426l.562-.56a.75.75 0 0 0-1.06-1.062l-.547.547a1.632 1.632 0 0 1-2.305-2.304l.547-.546Z"/>
  <path fill="#515A63" fill-rule="evenodd" d="M14.25 2a2.83 2.83 0 0 1 1.992.82l2.93 2.906c.529.526.828 1.24.828 1.986v7.593c0 1.367 0 2.47-.116 3.337-.122.9-.38 1.658-.982 2.26-.602.601-1.36.86-2.26.981-.867.117-1.97.117-3.337.117h-2.61c-1.367 0-2.47 0-3.337-.117-.9-.12-1.658-.38-2.26-.981-.602-.602-.86-1.36-.981-2.26C4 17.775 4 16.672 4 15.305v-6.61c0-1.368 0-2.47.117-3.337.12-.9.38-1.658.981-2.26.602-.602 1.36-.86 2.26-.982C8.225 2 9.328 2 10.695 2h3.555Zm0 1.5H14v.25c0 .964.002 1.612.066 2.095.063.461.17.659.3.789.13.13.328.237.79.3.482.064 1.13.066 2.094.066h1.036a1.313 1.313 0 0 0-.171-.209l-2.93-2.906a1.33 1.33 0 0 0-.935-.385Zm-3.5 0h1.75v.302c0 .898 0 1.648.08 2.242.084.628.27 1.195.726 1.65.455.456 1.022.642 1.65.726.594.08 1.343.08 2.242.08H18.5v6.75c0 1.435-.002 2.436-.103 3.192-.099.734-.28 1.122-.556 1.399-.277.277-.665.457-1.4.556-.754.101-1.756.103-3.191.103h-2.5c-1.435 0-2.437-.002-3.192-.103-.734-.099-1.122-.28-1.399-.556-.277-.277-.457-.665-.556-1.4-.101-.755-.103-1.756-.103-3.191v-6.5c0-1.435.002-2.437.103-3.192.099-.734.28-1.122.556-1.399.277-.277.665-.457 1.4-.556.754-.101 1.756-.103 3.191-.103Z" clip-rule="evenodd"/>
</svg>
