<svg xmlns="http://www.w3.org/2000/svg" width="24" height="24" fill="currentColor" viewBox="0 0 24 24">
  <path fill="#515A63" fill-rule="evenodd" d="M16.25 3.5H16v.25c0 .964.002 1.612.067 2.095.062.461.169.659.3.789.13.13.327.237.788.3.483.064 1.131.066 2.095.066h1.036a1.313 1.313 0 0 0-.171-.209l-2.93-2.906a1.33 1.33 0 0 0-.935-.385ZM6.008 18.98A3.25 3.25 0 0 0 9.25 22h6.055c1.367 0 2.47 0 3.337-.117.9-.12 1.658-.38 2.26-.981.602-.602.86-1.36.982-2.26.116-.867.116-1.97.116-3.337V7.712c0-.746-.299-1.46-.829-1.986L18.242 2.82A2.83 2.83 0 0 0 16.25 2h-4.536c-.904 0-1.633 0-2.222.053-.606.055-1.136.172-1.617.45a3.75 3.75 0 0 0-1.373 1.372c-.277.481-.394 1.011-.449 1.617-.039.43-.05.935-.052 1.528-1.092.04-1.797.16-2.363.516a3.5 3.5 0 0 0-1.102 1.102C2 9.492 2 10.66 2 13s0 3.508.536 4.362a3.5 3.5 0 0 0 1.102 1.102c.567.356 1.274.476 2.37.516Zm1.51.02c.12.848.85 1.5 1.732 1.5h6c1.435 0 2.436-.002 3.192-.103.734-.099 1.122-.28 1.399-.556.277-.277.457-.665.556-1.4.101-.755.103-1.756.103-3.191V8.5h-1.302c-.899 0-1.648 0-2.242-.08-.628-.084-1.195-.27-1.65-.725-.456-.456-.642-1.023-.726-1.65-.08-.595-.08-1.345-.08-2.243V3.5h-2.75c-.948 0-1.61 0-2.122.047-.503.046-.788.13-1.003.254a2.25 2.25 0 0 0-.824.824c-.124.215-.208.5-.254 1.003A16.91 16.91 0 0 0 7.501 7H8c2.339 0 3.508 0 4.362.536a3.5 3.5 0 0 1 1.101 1.102C14 9.492 14 10.66 14 13s0 3.508-.537 4.362a3.5 3.5 0 0 1-1.1 1.102C11.507 19 10.338 19 8 19h-.482ZM8 17.5c-1.2 0-1.99-.002-2.593-.06-.58-.056-.823-.154-.971-.247a2 2 0 0 1-.63-.629c-.092-.148-.19-.392-.246-.97-.058-.603-.06-1.395-.06-2.594 0-1.2.002-1.991.06-2.593.056-.58.154-.823.247-.971a2 2 0 0 1 .629-.63c.148-.092.392-.19.97-.246C6.01 8.502 6.802 8.5 8 8.5c1.2 0 1.99.002 2.593.06.58.056.823.154.971.246a2 2 0 0 1 .63.63c.092.148.19.392.246.97.058.603.06 1.395.06 2.594 0 1.199-.002 1.99-.06 2.593-.056.58-.154.823-.247.971a2 2 0 0 1-.629.63c-.148.092-.392.19-.97.246-.603.058-1.395.06-2.594.06Zm-1.92-6.816a.75.75 0 0 1 1.058.081l.931 1.087L9 10.765a.75.75 0 1 1 1.14.976l-1.083 1.263 1.082 1.263A.75.75 0 0 1 9 15.243l-.93-1.086-.932 1.086a.75.75 0 1 1-1.139-.976l1.082-1.263L6 11.742a.75.75 0 0 1 .081-1.058Z" clip-rule="evenodd"/>
</svg>
