<svg xmlns="http://www.w3.org/2000/svg" width="24" height="24" fill="currentColor" viewBox="0 0 24 24">
  <path fill="#515A63" fill-rule="evenodd" d="M14 3.5h.25c.352 0 .688.139.936.385l2.929 2.906c.065.064.122.134.17.209H17.25c-.964 0-1.612-.002-2.095-.067-.461-.062-.659-.169-.789-.3-.13-.13-.237-.327-.3-.788C14.002 5.362 14 4.714 14 3.75V3.5Zm-1.5 0h-1.75c-1.435 0-2.437.002-3.192.103-.734.099-1.122.28-1.399.556-.277.277-.457.665-.556 1.4-.101.754-.103 1.756-.103 3.191v6.5c0 1.435.002 2.436.103 3.192.099.734.28 1.122.556 1.399.277.277.665.457 1.4.556.754.101 1.756.103 3.191.103h2.5c1.435 0 2.437-.002 3.192-.103.734-.099 1.122-.28 1.399-.556.277-.277.457-.665.556-1.4.101-.755.103-1.756.103-3.191V8.5h-1.302c-.899 0-1.648 0-2.242-.08-.628-.084-1.195-.27-1.65-.725-.456-.456-.642-1.023-.726-1.65-.08-.595-.08-1.345-.08-2.243V3.5ZM14.25 2h-3.555c-1.367 0-2.47 0-3.337.116-.9.122-1.658.38-2.26.982-.602.602-.86 1.36-.981 2.26C4 6.225 4 7.328 4 8.695v6.61c0 1.367 0 2.47.117 3.337.12.9.38 1.658.981 2.26.602.601 1.36.86 2.26.981.867.117 1.97.117 3.337.117h2.61c1.367 0 2.47 0 3.337-.117.9-.12 1.658-.38 2.26-.981.602-.602.86-1.36.982-2.26.116-.867.116-1.97.116-3.337V7.712c0-.746-.3-1.46-.829-1.986L16.242 2.82A2.83 2.83 0 0 0 14.25 2Zm-3.386 16.317c.099-.194.126-.432.133-.817h2.006c.007.385.034.623.133.817.12.236.311.427.546.547C13.95 19 14.3 19 15 19c.7 0 1.05 0 1.317-.136a1.25 1.25 0 0 0 .547-.547C17 18.05 17 17.7 17 17s0-1.05-.136-1.318a1.25 1.25 0 0 0-.547-.546c-.235-.12-.535-.134-1.082-.136l-1.287-1.93C14 12.83 14 12.507 14 12c0-.7 0-1.05-.136-1.318a1.25 1.25 0 0 0-.546-.546C13.05 10 12.7 10 12 10c-.7 0-1.05 0-1.318.136a1.25 1.25 0 0 0-.546.546C10 10.95 10 11.3 10 12c0 .506 0 .83.052 1.07L8.765 15c-.547.002-.847.016-1.082.136a1.25 1.25 0 0 0-.547.546C7 15.95 7 16.3 7 17c0 .7 0 1.05.136 1.317.12.236.311.427.547.547C7.95 19 8.3 19 9 19s1.05 0 1.318-.136a1.25 1.25 0 0 0 .546-.547Zm1.893-4.33C12.559 14 12.315 14 12 14s-.56 0-.757-.012l-.81 1.215c.182.119.331.284.43.48.048.092.079.194.099.317h2.076a1.07 1.07 0 0 1 .098-.318c.1-.195.249-.36.431-.48l-.81-1.214ZM12.5 12c0 .178 0 .319-.002.44l-.001.057-.057.001c-.121.002-.262.002-.44.002s-.319 0-.44-.002l-.057-.001-.001-.057c-.002-.121-.002-.262-.002-.44s0-.319.002-.44l.001-.057.057-.001c.121-.002.262-.002.44-.002s.319 0 .44.002l.057.001.001.057c.002.121.002.262.002.44Zm-3.002 5.44c.002-.121.002-.262.002-.44s0-.319-.002-.44l-.001-.057-.057-.001C9.319 16.5 9.178 16.5 9 16.5s-.319 0-.44.002l-.057.001-.001.057c-.002.121-.002.262-.002.44s0 .319.002.44l.001.057.057.001c.121.002.262.002.44.002s.319 0 .44-.002l.057-.001.001-.057ZM15.5 17c0 .178 0 .319-.002.44l-.001.057-.057.001c-.121.002-.262.002-.44.002s-.319 0-.44-.002l-.057-.001-.001-.057c-.002-.121-.002-.262-.002-.44s0-.319.002-.44l.001-.057.057-.001c.121-.002.262-.002.44-.002s.319 0 .44.002l.057.001.001.057c.002.121.002.262.002.44Z" clip-rule="evenodd"/>
</svg>
