<svg xmlns="http://www.w3.org/2000/svg" width="24" height="24" fill="currentColor" viewBox="0 0 24 24">
  <path fill="#656D75" fill-rule="evenodd" d="M14.89 7.648a.498.498 0 0 1 .703-.004l.76.748c.199.195.2.515.003.712l-1.133 1.128-1.455-1.459 1.122-1.125Zm-2.18 2.186-5.138 5.152a.25.25 0 0 0-.073.176L7.498 16.5h1.334a.25.25 0 0 0 .176-.073l5.153-5.135-1.452-1.457Zm3.93-3.262a1.992 1.992 0 0 0-2.808.014l-7.319 7.338a1.754 1.754 0 0 0-.511 1.237L6 17.25a.752.752 0 0 0 .749.751h2.083c.461 0 .904-.183 1.231-.51l7.348-7.321a2.005 2.005 0 0 0-.01-2.85l-.76-.747Z" clip-rule="evenodd"/>
</svg>
