<svg xmlns="http://www.w3.org/2000/svg" width="24" height="24" fill="currentColor" viewBox="0 0 24 24">
  <path fill="#656D75" fill-rule="evenodd" d="M17.016 5.25c1.515 0 2.734 1.254 2.733 2.822v-.078a.743.743 0 0 1 .001.048V15.6c0 1.735-1.375 3.15-3.083 3.15H7.333c-1.707 0-3.083-1.415-3.083-3.15V8.04c0-.053.006-.105.016-.155l.003-.05c.104-1.45 1.288-2.585 2.727-2.585h10.02ZM5.75 10.552V15.6c0 .916.714 1.65 1.583 1.65h9.334c.87 0 1.583-.734 1.583-1.65v-5.041l-3.197 2.23a5.308 5.308 0 0 1-5.888.138l-.207-.137-3.208-2.238ZM17.016 6.75H6.996c-.643 0-1.182.518-1.23 1.165l-.004.126c0 .433.207.835.55 1.074l3.504 2.444a3.81 3.81 0 0 0 4.38 0L17.7 9.115a1.29 1.29 0 0 0 .543-.935l.006-.138c0-.719-.557-1.292-1.234-1.292Z" clip-rule="evenodd"/>
</svg>
