<svg xmlns="http://www.w3.org/2000/svg" width="24" height="24" fill="currentColor" viewBox="0 0 24 24">
  <path fill="#656D75" fill-rule="evenodd" d="M10.5 6.362c0-1.532 1.46-2.627 2.912-2.306l.011.003 3.735.888A2.357 2.357 0 0 1 19 7.25v9.498c0 1.102-.76 2.062-1.842 2.304l-3.746.89c-1.452.322-2.912-.773-2.912-2.304V6.362Zm2.583-.842C12.527 5.4 12 5.834 12 6.362v11.277c0 .526.526.96 1.083.84l3.746-.89a.857.857 0 0 0 .671-.84V7.25a.857.857 0 0 0-.671-.84l-.012-.003-3.734-.888ZM5 8.36C5 6.998 6.18 6 7.5 6h.75a.75.75 0 0 1 0 1.5H7.5c-.613 0-1 .442-1 .86v7.28c0 .418.387.86 1 .86h.75a.75.75 0 0 1 0 1.5H7.5C6.18 18 5 17.002 5 15.64V8.36Zm9.5 2.834a.75.75 0 0 0-1.5 0v1.611a.75.75 0 0 0 1.5 0v-1.61Z" clip-rule="evenodd"/>
</svg>
