<svg xmlns="http://www.w3.org/2000/svg" width="24" height="24" fill="currentColor" viewBox="0 0 24 24">
  <path fill="#656D75" fill-rule="evenodd" d="M11.75 4a7.75 7.75 0 1 1 0 15.5 7.75 7.75 0 0 1 0-15.5Zm0 1.5a6.25 6.25 0 1 0 0 12.5 6.25 6.25 0 0 0 0-12.5Zm.027 6.278h-.027a.752.752 0 0 1 .446.147l.084.072 1.945 1.945a.75.75 0 0 1-.977 1.133l-.084-.072-.664-.665v2.079a.75.75 0 0 1-1.493.101L11 16.417v-2.08l-.664.665a.75.75 0 0 1-.977.073l-.084-.072a.75.75 0 0 1-.072-.977l.072-.084 1.945-1.945.02-.019a.772.772 0 0 1 .061-.051l-.081.07a.754.754 0 0 1 .53-.22l.027.001ZM8.639 11a.75.75 0 0 1 .102 1.493l-.102.007H7.86a.75.75 0 0 1-.102-1.493L7.861 11h.778Zm7 0a.75.75 0 0 1 .102 1.493l-.102.007h-.778a.75.75 0 0 1-.102-1.493l.102-.007h.778ZM9.446 8.397l.084.073.55.55a.75.75 0 0 1-.976 1.133l-.084-.072-.55-.55a.75.75 0 0 1 .976-1.134Zm5.584.073a.75.75 0 0 1 .073.976l-.073.085-.55.55a.75.75 0 0 1-1.133-.977l.072-.084.55-.55a.75.75 0 0 1 1.061 0Zm-3.28-1.36a.75.75 0 0 1 .743.648l.007.102v.778a.75.75 0 0 1-1.493.102L11 8.639V7.86a.75.75 0 0 1 .75-.75Z" clip-rule="evenodd"/>
</svg>
