<svg xmlns="http://www.w3.org/2000/svg" width="24" height="24" fill="currentColor" viewBox="0 0 24 24">
  <path fill="#656D75" fill-rule="evenodd" d="M7.404 7.404a6.5 6.5 0 1 1 9.194 9.194 6.5 6.5 0 1 1-9.194-9.194Zm10.255-1.06a8 8 0 0 0-11.315 0 8 8 0 0 0 0 11.315 8 8 0 0 0 11.315 0 8 8 0 0 0 0-11.315Zm-8.122 1.26a.75.75 0 0 1 1.06 0l1.931 1.93a.748.748 0 0 1 .223.517v.017a.756.756 0 0 1-.22.53l-1.933 1.933a.75.75 0 1 1-1.06-1.06l.652-.653H7.973a.75.75 0 0 1 0-1.5h2.218l-.654-.654a.75.75 0 0 1 0-1.06Zm4.928 4.927a.75.75 0 0 0-1.06-1.06l-1.932 1.932a.75.75 0 0 0-.002 1.063l1.933 1.933a.75.75 0 0 0 1.061-1.061l-.653-.653h2.217a.75.75 0 1 0 0-1.5h-2.217l.653-.654Z" clip-rule="evenodd"/>
</svg>
