<svg xmlns="http://www.w3.org/2000/svg" width="24" height="24" fill="currentColor" viewBox="0 0 24 24">
  <path fill="#515A63" d="M5.714 4.223a10 10 0 0 1 13.349.698l.007.007a10 10 0 0 1-13.356 14.85.75.75 0 0 1 .943-1.167 8.5 8.5 0 1 0 0-13.222.75.75 0 0 1-.943-1.166ZM7 7a5 5 0 1 1 0 10A5 5 0 0 1 7 7Zm9.031.22A6.766 6.766 0 0 1 18 12a6.766 6.766 0 0 1-1.969 4.78.75.75 0 1 1-1.062-1.06A5.266 5.266 0 0 0 16.5 12a5.266 5.266 0 0 0-1.531-3.72.75.75 0 1 1 1.062-1.06ZM7 8.5a3.5 3.5 0 1 0 0 7 3.5 3.5 0 0 0 0-7Zm7.175.824c.52.762.825 1.685.825 2.676a4.73 4.73 0 0 1-.827 2.68.75.75 0 1 1-1.238-.848A3.232 3.232 0 0 0 13.5 12a3.23 3.23 0 0 0-.564-1.83.75.75 0 1 1 1.24-.846Z"/>
</svg>
