<svg xmlns="http://www.w3.org/2000/svg" width="24" height="24" fill="currentColor" viewBox="0 0 24 24">
  <path fill="#656D75" fill-rule="evenodd" d="M10.061 5h.192a.75.75 0 0 1 0 1.5H10.1c-.881 0-1.487 0-1.951.048-.453.045-.69.128-.86.24-.2.13-.37.301-.502.501-.111.17-.194.407-.24.86-.046.464-.047 1.07-.047 1.951v.15a.75.75 0 0 1-1.5 0v-.19c0-.831 0-1.512.055-2.06.057-.57.18-1.078.479-1.533a3.25 3.25 0 0 1 .932-.932c.455-.3.963-.422 1.533-.479C8.547 5 9.229 5 10.06 5Zm5.79 1.548C15.386 6.5 14.781 6.5 13.9 6.5h-.15a.75.75 0 0 1 0-1.5h.189c.833 0 1.514 0 2.062.055.57.057 1.078.18 1.533.479.371.243.689.56.932.932.3.455.422.963.479 1.533.055.548.055 1.23.055 2.062v.189a.75.75 0 0 1-1.5 0v-.15c0-.881 0-1.487-.048-1.951-.045-.453-.128-.69-.24-.86a1.75 1.75 0 0 0-.501-.502c-.17-.111-.407-.194-.86-.24ZM5.75 13a.75.75 0 0 1 .75.75v.15c0 .881 0 1.486.048 1.951.045.453.128.69.24.86.13.2.301.37.501.502.17.111.407.194.86.24.464.046 1.07.047 1.951.047h.153a.75.75 0 0 1 0 1.5h-.192c-.833 0-1.514 0-2.062-.055-.57-.057-1.078-.18-1.533-.479a3.249 3.249 0 0 1-.932-.932c-.3-.455-.422-.963-.479-1.533C5 15.453 5 14.771 5 13.94v-.189a.75.75 0 0 1 .75-.75Zm12.5 0a.75.75 0 0 1 .75.75v.189c0 .833 0 1.514-.055 2.062-.057.57-.18 1.078-.479 1.533a3.25 3.25 0 0 1-.932.932c-.455.3-.963.422-1.533.479-.548.055-1.23.055-2.062.055h-.19a.75.75 0 0 1 0-1.5h.151c.881 0 1.486 0 1.951-.048.453-.045.69-.128.86-.24.2-.13.37-.301.502-.501.111-.17.194-.407.24-.86.046-.465.047-1.07.047-1.951v-.15a.75.75 0 0 1 .75-.75Z" clip-rule="evenodd"/>
</svg>
