<svg xmlns="http://www.w3.org/2000/svg" width="24" height="24" fill="currentColor" viewBox="0 0 24 24">
  <path fill="#656D75" fill-rule="evenodd" d="M12 18.5a6.5 6.5 0 1 0 0-13 6.5 6.5 0 0 0 0 13Zm0 1.5a8 8 0 1 0 0-16 8 8 0 0 0 0 16Zm2.752-9.193a.75.75 0 0 1-1.06-.055l-.942-1.048v3.546a.75.75 0 0 1-1.5 0V9.705l-.943 1.047a.75.75 0 1 1-1.114-1.004l2.242-2.492a.73.73 0 0 1 .24-.183.75.75 0 0 1 .89.183l2.242 2.492a.75.75 0 0 1-.055 1.06Zm-4.604 4.163a.75.75 0 0 0-.796 1.272A4.98 4.98 0 0 0 12 17a4.98 4.98 0 0 0 2.648-.758.75.75 0 1 0-.796-1.272A3.48 3.48 0 0 1 12 15.5a3.48 3.48 0 0 1-1.852-.53Z" clip-rule="evenodd"/>
</svg>
