<svg width="24" height="24" viewBox="0 0 24 24" fill="currentColor" xmlns="http://www.w3.org/2000/svg">
    <path fill-rule="evenodd" clip-rule="evenodd" d="M7.80362 5.68083C7.35983 5.24115 6.64031 5.24115 6.19652 5.68083C5.75272 6.12052 5.75272 6.8334 6.19652 7.27308C6.64031 7.71277 7.35983 7.71277 7.80362 7.27308C8.24741 6.8334 8.24741 6.12052 7.80362 5.68083ZM5.23225 4.72548C6.20859 3.75817 7.79154 3.75817 8.76788 4.72548C9.74422 5.6928 9.74422 7.26112 8.76788 8.22843C7.79154 9.19575 6.20859 9.19575 5.23225 8.22843C4.25592 7.26112 4.25592 5.6928 5.23225 4.72548Z" fill="#656D75"/>   
    <path fill-rule="evenodd" clip-rule="evenodd" d="M15.0631 5.80142C16.8423 5.79906 18.1369 7.39859 18.1358 9.17949C18.1356 10.9571 16.8434 12.5559 15.0657 12.5559H8.93375C8.07328 12.5559 7.22734 13.3762 7.22734 14.5816V14.5843C7.22734 15.7896 8.07328 16.61 8.93375 16.61H12.2129C12.5895 16.61 12.8948 16.9124 12.8948 17.2855C12.8948 17.6586 12.5895 17.961 12.2129 17.961H8.93375C7.15597 17.961 5.86367 16.362 5.86367 14.5843V14.5816C5.86367 12.8038 7.15597 11.2048 8.93375 11.2048H15.0657C15.9262 11.2048 16.7721 10.3845 16.7721 9.17909C16.7729 7.97147 15.9256 7.15131 15.0649 7.15249L11.3192 7.15699C10.9426 7.15744 10.637 6.85536 10.6365 6.48228C10.6361 6.10919 10.941 5.80638 11.3175 5.80592L15.0631 5.80142Z" fill="#656D75"/>
    <path fill-rule="evenodd" clip-rule="evenodd" d="M16.2935 14.7373L18.9187 16.2758C19.6947 16.7298 19.6924 17.8407 18.9199 18.2944L16.2935 19.8337C15.5005 20.2994 14.5003 19.7314 14.5003 18.8212V15.7498C14.5003 14.8396 15.5005 14.2717 16.2935 14.7373ZM15.8639 16.0553V18.5157L17.963 17.2855L15.8639 16.0553Z" fill="#656D75"/>
</svg>