<svg xmlns="http://www.w3.org/2000/svg" width="24" height="24" fill="currentColor" viewBox="0 0 24 24">
  <path fill="#656D75" fill-rule="evenodd" d="M5 8.015C5 6.835 6.062 6 7.214 6h3.376c.453 0 .9.196 1.184.563l1.062 1.371s.004.004.013.008c.012.006.03.01.05.01h4.888c1.151 0 2.213.837 2.213 2.016v6.017C20 17.165 18.938 18 17.787 18H7.213C6.062 18 5 17.164 5 15.985v-7.97ZM7.295 7.5c-.51 0-.795.343-.795.624v7.752c0 .28.285.624.795.624h10.41c.51 0 .795-.344.795-.624v-5.853c0-.28-.285-.624-.795-.624h-4.812a1.48 1.48 0 0 1-1.167-.548l-1.044-1.333s-.004-.004-.013-.008a.12.12 0 0 0-.05-.01H7.296Z" clip-rule="evenodd"/>
</svg>
