<svg xmlns="http://www.w3.org/2000/svg" width="24" height="24" fill="currentColor" viewBox="0 0 24 24">
  <path fill="#656D75" fill-rule="evenodd" d="M4 7.683C4 6.405 5.133 5.5 6.361 5.5h3.602c.482 0 .96.213 1.263.61l1.132 1.485s.005.005.014.009a.128.128 0 0 0 .054.011h5.213c1.228 0 2.361.906 2.361 2.183v6.519c0 1.278-1.133 2.183-2.361 2.183H6.36C5.133 18.5 4 17.595 4 16.317V7.683Zm2.361-.694c-.552 0-.861.382-.861.694v8.634c0 .312.309.695.861.695H17.64c.552 0 .861-.383.861-.695V9.798c0-.311-.31-.694-.861-.694h-5.213c-.482 0-.961-.212-1.264-.61L10.03 7.008s-.005-.005-.014-.01a.128.128 0 0 0-.054-.01H6.36Z" clip-rule="evenodd"/>
</svg>
