<svg xmlns="http://www.w3.org/2000/svg" width="24" height="24" fill="currentColor" viewBox="0 0 24 24">
  <path fill="#656D75" fill-rule="evenodd" d="M18.074 9.089c.58.684 1.085 1.42 1.493 2.18a1.552 1.552 0 0 1 0 1.462l-.008.013-.151.275c-1.679 2.945-4.45 5.093-7.147 5.225L12 18.25a6.095 6.095 0 0 1-2.217-.439.766.766 0 0 1-.43-.984.746.746 0 0 1 .968-.438c.477.186.948.296 1.406.328l.273.01c2.237 0 4.777-1.98 6.25-4.725a11.046 11.046 0 0 0-1.312-1.919.77.77 0 0 1 .079-1.074.742.742 0 0 1 1.057.08ZM12 5.75c1.293 0 2.608.464 3.845 1.302l1.071-1.08a.742.742 0 0 1 1.06.003.771.771 0 0 1 .07.993l-.073.085-1.523 1.533-.01.012-2.17 2.187-.01.009-7.176 7.235a.742.742 0 0 1-1.061-.004.771.771 0 0 1-.069-.992l.073-.086.937-.943a12.52 12.52 0 0 1-2.531-3.273 1.552 1.552 0 0 1 0-1.462C6.143 8.08 9.133 5.75 12 5.75Zm0 1.524c-2.162 0-4.609 1.85-6.099 4.452L5.75 12a10.967 10.967 0 0 0 2.28 2.929l1.237-1.247a3.257 3.257 0 0 1 .473-3.97 3.178 3.178 0 0 1 3.93-.47l1.083-1.091c-.922-.572-1.863-.877-2.753-.877Zm-1.204 3.52a1.714 1.714 0 0 0-.406 1.755l2.152-2.169a1.695 1.695 0 0 0-1.746.414Z" clip-rule="evenodd"/>
</svg>
