<svg xmlns="http://www.w3.org/2000/svg" width="24" height="24" fill="currentColor" viewBox="0 0 24 24">
  <path fill="#656D75" fill-rule="evenodd" d="M13.944 4.667a3.166 3.166 0 0 0-3.888 0l-4.833 3.76A3.166 3.166 0 0 0 4 10.927v5.906A3.166 3.166 0 0 0 7.167 20h9.666A3.166 3.166 0 0 0 20 16.833v-5.907c0-.977-.45-1.9-1.223-2.5l-4.833-3.759Zm-2.968 1.184a1.666 1.666 0 0 1 2.047 0l4.834 3.76c.405.315.643.8.643 1.315v5.907c0 .92-.746 1.667-1.667 1.667H7.167c-.92 0-1.667-.746-1.667-1.667v-5.907c0-.514.237-1 .643-1.315l4.833-3.76ZM9.75 15a.75.75 0 0 0 0 1.5h4.5a.75.75 0 0 0 0-1.5h-4.5Z" clip-rule="evenodd"/>
</svg>
