<svg xmlns="http://www.w3.org/2000/svg" width="24" height="24" fill="currentColor" viewBox="0 0 24 24">
  <path fill="#656D75" fill-rule="evenodd" d="M12.039 8.8c.357 0 .647.293.647.655a1.88 1.88 0 0 0 1.872 1.89c.357 0 .647.293.647.655a.653.653 0 0 1-.56.649l-.087.006a1.881 1.881 0 0 0-1.872 1.89c0 .362-.29.655-.647.655l-.036-.001a.651.651 0 0 1-.684-.654 1.88 1.88 0 0 0-1.871-1.89A.651.651 0 0 1 8.8 12c0-.361.29-.655.648-.655a1.881 1.881 0 0 0 1.87-1.89c0-.362.29-.655.649-.655l.035.001a.651.651 0 0 1 .037-.001Zm-.037 2.545-.055.075a3.202 3.202 0 0 1-.58.58c.242.186.456.407.636.655.18-.248.394-.469.636-.655a3.184 3.184 0 0 1-.637-.655Z" clip-rule="evenodd"/>
  <path fill="#656D75" fill-rule="evenodd" d="M7.275 7.275C9.391 5.16 10.45 4.102 11.751 4.01a3.5 3.5 0 0 1 .499 0c1.302.093 2.36 1.15 4.475 3.266 2.116 2.116 3.173 3.174 3.267 4.476a3.52 3.52 0 0 1 0 .499c-.094 1.302-1.151 2.36-3.267 4.475-2.115 2.116-3.173 3.173-4.475 3.267a3.52 3.52 0 0 1-.5 0c-1.301-.094-2.36-1.151-4.475-3.267C5.16 14.61 4.102 13.552 4.01 12.25a3.5 3.5 0 0 1 0-.5c.093-1.301 1.15-2.36 3.266-4.475Zm1.06 8.39c-1.084-1.085-1.799-1.804-2.27-2.406-.448-.574-.543-.883-.56-1.116a2 2 0 0 1 0-.285c.017-.234.112-.542.56-1.116.471-.603 1.186-1.321 2.27-2.406 1.086-1.085 1.804-1.8 2.407-2.27.574-.449.882-.544 1.116-.56a2 2 0 0 1 .285 0c.233.016.542.111 1.116.56.602.47 1.32 1.185 2.405 2.27 1.085 1.085 1.8 1.803 2.27 2.406.45.574.545.882.561 1.116.007.095.007.19 0 .285-.016.233-.111.542-.56 1.116-.47.602-1.186 1.32-2.27 2.405-1.085 1.085-1.804 1.8-2.406 2.27-.574.45-.883.545-1.116.561-.095.007-.19.007-.285 0-.234-.016-.542-.111-1.116-.56-.603-.47-1.321-1.186-2.406-2.27Z" clip-rule="evenodd"/>
</svg>
