<svg xmlns="http://www.w3.org/2000/svg" width="24" height="24" fill="currentColor" viewBox="0 0 24 24">
  <path fill="#656D75" fill-rule="evenodd" d="M12 4a8 8 0 1 1 0 16 8 8 0 0 1 0-16Zm0 1.5a6.5 6.5 0 1 0 0 13 6.5 6.5 0 0 0 0-13Zm1.852 9.47a.75.75 0 0 1 .796 1.272A4.98 4.98 0 0 1 12 17a4.98 4.98 0 0 1-2.648-.758.75.75 0 1 1 .796-1.272A3.48 3.48 0 0 0 12 15.5a3.48 3.48 0 0 0 1.852-.53ZM12 7a.75.75 0 0 1 .75.75v3.546l.943-1.048a.75.75 0 0 1 1.114 1.004l-2.242 2.492a.748.748 0 0 1-1.129 0l-2.243-2.492a.75.75 0 1 1 1.114-1.004l.943 1.047V7.75A.75.75 0 0 1 12 7Z" clip-rule="evenodd"/>
</svg>
