<svg xmlns="http://www.w3.org/2000/svg" width="24" height="24" fill="currentColor" viewBox="0 0 24 24">
  <path fill="#656D75" fill-rule="evenodd" d="M12 4a8 8 0 0 1 7.996 7.75L20 12a8 8 0 0 1-7.75 7.996L12 20a8 8 0 0 1-7.996-7.75L4 12a8 8 0 0 1 7.75-7.996L12 4Zm.023 1.5-.226.003c-3.426.105-6.173 2.856-6.293 6.242l-.004.232.003.226c.105 3.426 2.856 6.172 6.242 6.293l.232.004.226-.003c3.426-.105 6.172-2.856 6.293-6.242l.004-.232-.003-.226a6.5 6.5 0 0 0-6.264-6.293l-.21-.004Zm.125 5.25a.75.75 0 0 1 .743.648l.007.102v4.444a.75.75 0 0 1-1.494.102l-.006-.102-.001-3.694h-.138a.75.75 0 0 1-.744-.648l-.006-.102a.75.75 0 0 1 .648-.743l.102-.007h.889Zm-.149-3.222.114.006a.972.972 0 1 1-.228 0L12 7.528Z" clip-rule="evenodd"/>
</svg>
