<svg xmlns="http://www.w3.org/2000/svg" width="24" height="24" fill="currentColor" viewBox="0 0 24 24">
  <path fill="#656D75" fill-rule="evenodd" d="M16.274 7.167a.75.75 0 0 1 1.055.11A7.476 7.476 0 0 1 19 12a7.47 7.47 0 0 1-1.673 4.723.75.75 0 1 1-1.165-.945A5.975 5.975 0 0 0 17.5 12c0-1.432-.5-2.745-1.336-3.776a.75.75 0 0 1 .11-1.056ZM9 9.5a2.5 2.5 0 1 0 0 5 2.5 2.5 0 0 0 0-5ZM5 12a4 4 0 1 1 8.001 0A4 4 0 0 1 5 12Zm10.331-2.63a.75.75 0 1 0-1.317.718c.31.567.486 1.218.486 1.913a3.98 3.98 0 0 1-.466 1.876.75.75 0 0 0 1.324.705c.41-.77.642-1.65.642-2.581 0-.952-.242-1.85-.669-2.632Z" clip-rule="evenodd"/>
</svg>
