<svg xmlns="http://www.w3.org/2000/svg" width="24" height="24" fill="currentColor" viewBox="0 0 24 24">
  <path fill-rule="evenodd" d="M4 9.268A4.768 4.768 0 0 1 8.768 4.5h6.464A4.768 4.768 0 0 1 20 9.268v6.464a4.768 4.768 0 0 1-4.768 4.768H8.768A4.768 4.768 0 0 1 4 15.732V9.268Zm4.768-3.313a3.313 3.313 0 0 0-3.313 3.313v6.464a3.313 3.313 0 0 0 3.313 3.314h6.464a3.313 3.313 0 0 0 3.314-3.314V9.268a3.313 3.313 0 0 0-3.314-3.313H8.768Zm-1.536 4.75a2.972 2.972 0 0 1 2.972-2.973h2.38a2.972 2.972 0 0 1 2.972 2.972v.763a2.972 2.972 0 0 1-2.972 2.972h-.853a.727.727 0 0 1 0-1.454h.853c.838 0 1.517-.68 1.517-1.518v-.763a1.518 1.518 0 0 0-1.517-1.517h-2.38c-.838 0-1.517.68-1.517 1.517v.18a.727.727 0 1 1-1.455 0v-.18Zm1.212 2.827a2.972 2.972 0 0 1 2.972-2.971h.853a.727.727 0 0 1 0 1.454h-.853c-.838 0-1.517.68-1.517 1.518v.763c0 .838.68 1.517 1.517 1.517h2.38a1.517 1.517 0 0 0 1.517-1.517v-.18a.727.727 0 1 1 1.455 0v.18a2.972 2.972 0 0 1-2.972 2.972h-2.38a2.972 2.972 0 0 1-2.972-2.972v-.764Z" clip-rule="evenodd"/>
</svg>
