<svg xmlns="http://www.w3.org/2000/svg" width="24" height="24" fill="currentColor" viewBox="0 0 24 24">
  <path fill="#656D75" fill-rule="evenodd" d="M4.75 14a.75.75 0 0 1 .75.75v.698c.003.595.011 1.042.048 1.403.045.453.128.69.24.86.13.2.301.37.501.502.17.111.407.194.86.24.361.036.808.044 1.403.046l.7.001a.75.75 0 1 1 0 1.5h-.191c-.833 0-1.514 0-2.062-.055-.57-.057-1.078-.18-1.533-.479a3.25 3.25 0 0 1-.932-.932c-.3-.455-.422-.963-.479-1.533-.047-.47-.054-1.037-.055-1.714v-.537a.75.75 0 0 1 .75-.75Zm14.5 0a.75.75 0 0 1 .75.75v.189c0 .833 0 1.514-.055 2.062-.057.57-.18 1.078-.479 1.533a3.251 3.251 0 0 1-.932.932c-.455.3-.963.422-1.533.479-.47.047-1.037.054-1.714.055h-.537a.75.75 0 0 1 0-1.5h.698c.595-.003 1.042-.011 1.403-.048.453-.045.69-.128.86-.24.2-.13.37-.301.502-.501.111-.17.194-.407.24-.86.036-.361.044-.808.046-1.403l.001-.698a.75.75 0 0 1 .75-.75ZM10.5 8.5a3.5 3.5 0 1 1 0 7 3.5 3.5 0 0 1 0-7Zm5.74.848c.481.77.76 1.68.76 2.652a4.98 4.98 0 0 1-.756 2.644.75.75 0 1 1-1.272-.794A3.48 3.48 0 0 0 15.5 12a3.48 3.48 0 0 0-.532-1.855.75.75 0 1 1 1.271-.797ZM10.5 10a2 2 0 1 0 0 4 2 2 0 0 0 0-4ZM9.253 4a.75.75 0 1 1 0 1.5h-.701c-.595.003-1.042.011-1.403.048-.453.045-.69.128-.86.24-.2.13-.37.301-.502.501-.111.17-.194.407-.24.86-.036.361-.044.808-.046 1.403L5.5 9.25a.75.75 0 1 1-1.5 0v-.189c0-.833 0-1.514.055-2.062.057-.57.18-1.078.479-1.533a3.25 3.25 0 0 1 .932-.932c.455-.3.963-.422 1.533-.479.47-.047 1.037-.054 1.714-.055h.54ZM17 4.055c.57.057 1.078.18 1.533.479.371.243.689.56.932.932.3.455.422.963.479 1.533.047.47.054 1.037.055 1.714v.537a.75.75 0 0 1-1.5 0v-.698a15.413 15.413 0 0 0-.048-1.403c-.045-.453-.128-.69-.24-.86a1.75 1.75 0 0 0-.501-.502c-.17-.111-.407-.194-.86-.24a15.388 15.388 0 0 0-1.403-.046L14.75 5.5a.75.75 0 0 1 0-1.5h.189c.833 0 1.514 0 2.062.055Z" clip-rule="evenodd"/>
</svg>
