<svg xmlns="http://www.w3.org/2000/svg" width="24" height="24" fill="currentColor" viewBox="0 0 24 24">
  <path fill="#656D75" fill-rule="evenodd" d="M10.422 4.774c0-.427.347-.774.774-.774H12c.62 0 1.183.236 1.606.623A2.371 2.371 0 0 1 15.211 4h.803a.774.774 0 1 1 0 1.548h-.803a.832.832 0 0 0-.832.832v11.24c0 .458.373.83.832.83h.803a.774.774 0 1 1 0 1.549h-.803a2.371 2.371 0 0 1-1.606-.623A2.371 2.371 0 0 1 12 20h-.803a.774.774 0 1 1 0-1.548H12a.832.832 0 0 0 .832-.823V6.38A.832.832 0 0 0 12 5.55h-.803a.774.774 0 0 1-.774-.775ZM6.38 8.86a.832.832 0 0 0-.832.832v4.616c0 .46.373.832.832.832h4.198a.774.774 0 1 1 0 1.548H6.38A2.38 2.38 0 0 1 4 14.308V9.692a2.38 2.38 0 0 1 2.38-2.38h4.198a.774.774 0 1 1 0 1.548H6.38Zm9.365-.774c0-.428.347-.774.774-.774h1.101A2.38 2.38 0 0 1 20 9.692v4.616a2.38 2.38 0 0 1-2.38 2.38h-1.1a.774.774 0 1 1 0-1.548h1.1c.46 0 .832-.373.832-.832V9.692a.832.832 0 0 0-.832-.832h-1.1a.774.774 0 0 1-.775-.774Z" clip-rule="evenodd"/>
</svg>
