<svg xmlns="http://www.w3.org/2000/svg" width="24" height="24" fill="currentColor" viewBox="0 0 24 24">
  <path fill="#656D75" fill-rule="evenodd" d="M12.036 6.442a5.629 5.629 0 0 1 6.823-.08c.562.417.891 1.076.891 1.771v8.484c0 1.124-1.194 1.803-2.197 1.323l-.217-.097c-1.609-.667-3.565-.393-4.843.722a.75.75 0 0 1-.986 0c-1.336-1.166-3.413-1.412-5.061-.623l-.121.051c-.975.372-2.075-.297-2.075-1.375V8.133c0-.696.329-1.354.89-1.771a5.63 5.63 0 0 1 6.824.08l.036.03.036-.03ZM11.25 7.8a4.132 4.132 0 0 0-5.216-.233.706.706 0 0 0-.285.567v8.483l.004-.01.29-.129a6.345 6.345 0 0 1 5.207.136V7.799Zm6.714-.232a4.13 4.13 0 0 0-5.215.231v8.814a6.347 6.347 0 0 1 5.215-.131l.28.125.005.01V8.133a.707.707 0 0 0-.202-.493l-.083-.073Z" clip-rule="evenodd"/>
</svg>
