<svg xmlns="http://www.w3.org/2000/svg" width="24" height="24" fill="currentColor" viewBox="0 0 24 24">
  <path fill="#515A63" d="M11.648 20.493a.774.774 0 0 1-.29-.103.755.755 0 0 1-.111-.084l.063.052a.718.718 0 0 1-.04-.032l-.023-.02c-1.781-1.612-4.533-1.95-6.72-.864C3.367 20.015 2 19.21 2 17.907V6.594c0-.843.385-1.643 1.048-2.153 2.609-2.009 6.173-1.898 8.663.21l.039.034.039-.034c2.423-2.051 5.863-2.211 8.45-.367l.212.158A2.716 2.716 0 0 1 21.5 6.594v11.312c0 1.303-1.367 2.11-2.527 1.534l-.237-.11c-2.145-.948-4.765-.578-6.483.976a.722.722 0 0 1-.26.154.682.682 0 0 1-.118.03l-.02.003-.105.007-.102-.007ZM11.001 6.03c-1.964-1.878-4.902-2.044-7.038-.4a1.22 1.22 0 0 0-.463.965v11.313c0 .171.182.279.36.19 2.262-1.122 4.993-1.027 7.14.193V6.03Zm8.535-.399c-2.134-1.644-5.072-1.479-7.036.398V18.29c2.066-1.173 4.673-1.305 6.881-.314l.258.121c.18.09.361-.018.361-.19V6.594c0-.38-.173-.74-.464-.964Z"/>
</svg>
