<svg xmlns="http://www.w3.org/2000/svg" width="24" height="24" fill="currentColor" viewBox="0 0 24 24">
  <path fill="#656D75" fill-rule="evenodd" d="M15.635 9.249 13.983 10.9c.48.859.354 1.965-.377 2.695a2.26 2.26 0 0 1-3.194 0 2.255 2.255 0 0 1 0-3.192 2.261 2.261 0 0 1 2.698-.375l1.187-1.186a3.888 3.888 0 0 0-2.288-.74A3.899 3.899 0 0 0 8.107 12a3.899 3.899 0 0 0 3.902 3.896A3.899 3.899 0 0 0 15.911 12a.616.616 0 1 1 1.232 0 5.13 5.13 0 0 1-5.134 5.128A5.13 5.13 0 0 1 6.875 12a5.13 5.13 0 0 1 5.134-5.128 5.12 5.12 0 0 1 3.169 1.093l1.167-1.167a6.784 6.784 0 0 0-9.128.417 6.76 6.76 0 0 0 0 9.57 6.783 6.783 0 0 0 9.584 0 6.713 6.713 0 0 0 1.967-4.784.616.616 0 1 1 1.232-.002 7.945 7.945 0 0 1-2.328 5.658 8.015 8.015 0 0 1-11.326 0 7.993 7.993 0 0 1 0-11.314 8.015 8.015 0 0 1 11.326 0c.24.24.241.63 0 .871l-.002.001-2.027 2.026-.008.008Zm-4.352 2.027c-.4.4-.4 1.048 0 1.448.4.4 1.051.4 1.453 0 .37-.369.398-.95.085-1.352l-.064-.07a.71.71 0 0 1-.026-.023l-.022-.027-.07-.062a1.029 1.029 0 0 0-1.356.086Z" clip-rule="evenodd"/>
</svg>
