<svg xmlns="http://www.w3.org/2000/svg" width="24" height="24" fill="currentColor" viewBox="0 0 24 24">
  <path fill="#656D75" fill-rule="evenodd" d="M5.75 7.25a.75.75 0 0 0 0 1.5h.5a.75.75 0 0 0 0-1.5h-.5Zm0 4a.75.75 0 0 0 0 1.5h.5a.75.75 0 0 0 0-1.5h-.5ZM5 16a.75.75 0 0 1 .75-.75h.5a.75.75 0 0 1 0 1.5h-.5A.75.75 0 0 1 5 16Zm4.75-8.75a.75.75 0 0 0 0 1.5h8.5a.75.75 0 0 0 0-1.5h-8.5ZM9 12a.75.75 0 0 1 .75-.75h8.5a.75.75 0 0 1 0 1.5h-8.5A.75.75 0 0 1 9 12Zm.75 3.25a.75.75 0 0 0 0 1.5h8.5a.75.75 0 0 0 0-1.5h-8.5Z" clip-rule="evenodd"/>
</svg>
