<svg xmlns="http://www.w3.org/2000/svg" width="24" height="24" fill="currentColor" viewBox="0 0 24 24">
  <path fill="#515A63" d="M6.87 6.284c1.35-1.35 2.31-2.307 3.134-2.936C10.812 2.732 11.4 2.5 12 2.5s1.188.23 1.996.847c.825.63 1.785 1.586 3.134 2.936l.586.586c1.35 1.35 2.307 2.31 2.936 3.134.616.808.847 1.397.847 1.996s-.23 1.188-.847 1.996c-.63.825-1.587 1.785-2.936 3.134l-.586.586c-1.35 1.35-2.31 2.307-3.134 2.936-.808.616-1.397.847-1.996.847s-1.188-.23-1.996-.847c-.825-.63-1.785-1.587-3.134-2.936l-.586-.586c-1.35-1.35-2.307-2.31-2.936-3.134C2.732 13.188 2.5 12.6 2.5 12s.23-1.188.847-1.996c.63-.825 1.586-1.785 2.936-3.134l.586-.586ZM12 1c-1.059 0-1.965.436-2.906 1.154-.915.698-1.945 1.728-3.245 3.028l-.667.667c-1.3 1.3-2.33 2.33-3.028 3.245C1.436 10.034 1 10.94 1 12c0 1.059.436 1.965 1.154 2.906.698.915 1.728 1.945 3.028 3.245l.667.667c1.3 1.3 2.33 2.33 3.245 3.027C10.034 22.565 10.94 23 12 23c1.059 0 1.965-.436 2.906-1.154.915-.698 1.945-1.728 3.245-3.028l.667-.667c1.3-1.3 2.33-2.33 3.027-3.245C22.565 13.966 23 13.06 23 12c0-1.059-.436-1.965-1.154-2.906-.698-.915-1.728-1.945-3.028-3.245l-.667-.667c-1.3-1.3-2.33-2.33-3.245-3.028C13.966 1.436 13.06 1 12 1Zm4.217 12.72.958-.97H14.75a.75.75 0 0 1 0-1.5h2.425l-.958-.97a.757.757 0 0 1 0-1.06.735.735 0 0 1 1.048 0l1.524 1.543.024.024c.143.145.298.302.412.452.132.176.275.427.275.761s-.143.585-.275.761c-.114.15-.269.307-.412.452l-.024.024-1.524 1.543a.735.735 0 0 1-1.048 0 .757.757 0 0 1 0-1.06Zm-6.967-.97H6.825l.958.97c.29.293.29.767 0 1.06a.735.735 0 0 1-1.048 0l-1.524-1.543-.024-.024a4.845 4.845 0 0 1-.412-.452A1.248 1.248 0 0 1 4.5 12c0-.334.143-.585.275-.761.114-.15.269-.307.412-.452l.024-.024L6.735 9.22a.735.735 0 0 1 1.048 0c.29.293.29.767 0 1.06l-.958.97H9.25a.75.75 0 0 1 0 1.5Z"/>
</svg>
