<svg xmlns="http://www.w3.org/2000/svg" width="24" height="24" fill="currentColor" viewBox="0 0 24 24">
  <path fill="#656D75" fill-rule="evenodd" d="M15.213 4A4.787 4.787 0 0 1 20 8.787v6.426A4.787 4.787 0 0 1 15.213 20H8.787A4.787 4.787 0 0 1 4 15.213V8.787A4.787 4.787 0 0 1 8.787 4h6.426Zm0 1.548H8.787a3.238 3.238 0 0 0-3.239 3.239v6.426a3.238 3.238 0 0 0 3.239 3.239h6.426a3.238 3.238 0 0 0 3.239-3.239V8.787a3.238 3.238 0 0 0-3.239-3.239ZM12 8.014c.392 0 .716.292.767.67l.007.105v5.62a.774.774 0 0 1-1.541.105l-.007-.105v-5.62c0-.428.346-.775.774-.775Zm-3.211 2.32c.391 0 .715.29.767.668l.007.105v3.302a.774.774 0 0 1-1.542.105l-.007-.105v-3.302c0-.427.347-.774.775-.774Zm6.422 1.1c.393 0 .716.292.768.67l.007.105v2.2a.774.774 0 0 1-1.542.105l-.007-.105v-2.2c0-.428.347-.775.774-.775Z" clip-rule="evenodd"/>
</svg>
