<svg xmlns="http://www.w3.org/2000/svg" width="24" height="24" fill="currentColor" viewBox="0 0 24 24">
  <path fill="#656D75" fill-rule="evenodd" d="M12 4c4.332 0 8 3.21 8 7.357s-3.668 7.357-8 7.357c-.47 0-.922-.064-1.33-.137l-.906.645-.04.03c-.312.22-.61.433-.866.564-.266.136-.713.303-1.181.06-.47-.242-.592-.703-.635-1A6.069 6.069 0 0 1 7 18.07v-1.052c-1.744-1.32-3-3.336-3-5.66C4 7.21 7.668 4 12 4Zm0 1.503c-3.646 0-6.5 2.673-6.5 5.854 0 1.865 1.074 3.56 2.673 4.654.205.14.327.373.327.622v1.16c0 .194 0 .35.002.48a16.406 16.406 0 0 0 .393-.276l1.165-.83a.748.748 0 0 1 .576-.125c.486.093.926.169 1.364.169 3.646 0 6.5-2.673 6.5-5.854S15.646 5.503 12 5.503ZM9 10a1 1 0 1 1 0 2 1 1 0 0 1 0-2Zm3 0a1 1 0 1 1 0 2 1 1 0 0 1 0-2Zm3 0a1 1 0 1 1 0 2 1 1 0 0 1 0-2Z" clip-rule="evenodd"/>
</svg>
