<svg xmlns="http://www.w3.org/2000/svg" width="24" height="24" fill="currentColor" viewBox="0 0 24 24">
  <path fill="#656D75" fill-rule="evenodd" d="M10.25 5a.75.75 0 0 1 .75.75v1.926c0 .489 0 .91-.034 1.255-.037.365-.118.724-.335 1.054a2.25 2.25 0 0 1-.646.646c-.33.216-.689.298-1.054.334C8.587 11 8.165 11 7.676 11H5.75a.75.75 0 0 1 0-1.5h1.89c.535 0 .88 0 1.141-.027.248-.025.336-.067.38-.096a.75.75 0 0 0 .216-.215c.03-.045.071-.133.096-.381.026-.26.027-.606.027-1.141V5.75a.75.75 0 0 1 .75-.75Zm-2.61 9.5c.535 0 .88 0 1.141.027.248.025.336.067.38.096.087.056.16.13.216.215.03.045.071.133.096.381.026.26.027.606.027 1.141v1.89a.75.75 0 0 0 1.5 0v-1.926c0-.489 0-.91-.034-1.255-.037-.365-.118-.724-.335-1.054a2.25 2.25 0 0 0-.646-.646c-.33-.216-.689-.298-1.054-.335C8.587 13 8.165 13 7.676 13H5.75a.75.75 0 0 0 0 1.5h1.89Zm8.72-1.5h-.036c-.489 0-.91 0-1.255.034-.365.037-.724.119-1.054.335a2.25 2.25 0 0 0-.645.646c-.217.33-.299.69-.335 1.054-.035.345-.035.766-.035 1.255v1.926a.75.75 0 0 0 1.5 0v-1.89c0-.535.001-.88.027-1.14.025-.25.067-.337.096-.382a.75.75 0 0 1 .215-.215c.045-.03.133-.071.381-.096.26-.026.606-.027 1.141-.027h1.893a.75.75 0 0 0 0-1.5H16.36ZM14.5 5.75a.75.75 0 0 0-1.5 0v1.926c0 .489 0 .91.035 1.255.036.365.118.724.335 1.054.168.257.388.477.645.646.33.216.69.298 1.054.334.345.035.766.035 1.255.035h1.929a.75.75 0 0 0 0-1.5H16.36c-.535 0-.88 0-1.14-.027-.249-.025-.337-.067-.382-.096a.749.749 0 0 1-.215-.215c-.03-.045-.07-.133-.096-.381-.026-.26-.027-.606-.027-1.141V5.75Z" clip-rule="evenodd"/>
</svg>
