<svg xmlns="http://www.w3.org/2000/svg" width="24" height="24" fill="currentColor" viewBox="0 0 24 24">
  <path fill="#656D75" fill-rule="evenodd" d="M10.663 6c.503.003.919.023 1.31.163.175.064.343.145.503.242.412.253.718.637 1.106 1.123l.068.084.079.098c.44.55.534.646.638.701.02.01.039.02.059.028.108.047.243.061.951.061h.399c.684.001 1.265.01 1.743.07.586.073 1.12.233 1.565.63.076.069.148.14.215.216.398.444.558.977.631 1.561.07.555.07 1.25.07 2.084v.571c-.001.754-.01 1.392-.08 1.913-.084.627-.27 1.194-.726 1.65-.455.455-1.022.64-1.65.725-.594.08-1.344.08-2.242.08h-4.604c-.899 0-1.648 0-2.242-.08-.628-.084-1.195-.27-1.65-.725-.456-.456-.642-1.023-.726-1.65a6.41 6.41 0 0 1-.03-.277c-.039-.42.307-.768.728-.768.407 0 .73.325.775.73l.014.115c.062.461.169.659.3.789.13.13.327.238.788.3.483.064 1.131.066 2.095.066h4.78c.812 0 1.38-.008 1.815-.066.461-.063.659-.17.789-.3.13-.13.237-.328.3-.79.051-.386.063-.877.065-1.552v-1.237c-.002-.6-.013-1.04-.057-1.391-.054-.433-.148-.622-.26-.748a1.236 1.236 0 0 0-.098-.097c-.125-.112-.315-.207-.75-.261-.353-.044-.797-.055-1.4-.057L15.043 10c-.442-.003-.84-.024-1.208-.182a2.241 2.241 0 0 1-.176-.084c-.41-.22-.703-.587-1.034-1.002l-.068-.085-.078-.098c-.49-.611-.627-.767-.787-.865a1.253 1.253 0 0 0-.229-.11c-.177-.063-.384-.074-1.167-.074h-.459c-.496.002-.862.01-1.156.04-.365.039-.533.106-.644.183a1.25 1.25 0 0 0-.314.314c-.077.111-.144.279-.182.644a7.395 7.395 0 0 0-.033.57.762.762 0 0 1-.757.749.739.739 0 0 1-.744-.751c.007-.266.019-.507.042-.725.05-.487.162-.939.442-1.343.187-.269.421-.503.69-.69.404-.28.856-.391 1.343-.442C8.99 6 9.566 6 10.256 6h.407ZM9.27 9.674a.75.75 0 0 1 1.056.096l1.5 2a.75.75 0 0 1 0 .96l-1.5 2a.75.75 0 0 1-1.152-.96l.475-.77H5.75a.75.75 0 0 1 0-1.5h3.899l-.475-.77a.75.75 0 0 1 .096-1.056Z" clip-rule="evenodd"/>
</svg>
