<svg xmlns="http://www.w3.org/2000/svg" width="24" height="24" fill="currentColor" viewBox="0 0 24 24">
  <path fill="#656D75" fill-rule="evenodd" d="M4 11.357C4 7.21 7.668 4 12 4s8 3.21 8 7.357-3.668 7.357-8 7.357c-.47 0-.922-.064-1.33-.137l-.906.645-.04.03c-.312.22-.61.433-.866.564-.266.136-.713.303-1.181.06-.47-.242-.592-.703-.635-1C7 18.592 7 18.225 7 17.843v-.826c-1.744-1.32-3-3.336-3-5.66Zm8-5.854c-3.646 0-6.5 2.673-6.5 5.854 0 1.865 1.074 3.56 2.673 4.654.205.14.327.373.327.622v1.16c0 .194 0 .35.002.48a16.406 16.406 0 0 0 .393-.276l1.165-.83a.748.748 0 0 1 .576-.125c.486.093.926.169 1.364.169 3.646 0 6.5-2.673 6.5-5.854S15.646 5.503 12 5.503ZM9.5 9.51A2.502 2.502 0 0 1 12 7.007c1.38 0 2.5 1.12 2.5 2.504 0 1.098-.717 1.674-1.197 1.998-.208.14-.343.25-.43.365a.603.603 0 0 0-.123.394.75.75 0 1 1-1.5 0c0-1.12.737-1.685 1.216-2.006.1-.068.183-.13.252-.19.065-.057.118-.112.159-.168A.614.614 0 0 0 13 9.511a1 1 0 1 0-2 0 .75.75 0 1 1-1.5 0Zm2.5 6.015a.75.75 0 1 0-.002-1.502.75.75 0 0 0 .002 1.502Z" clip-rule="evenodd"/>
</svg>
