<svg xmlns="http://www.w3.org/2000/svg" width="24" height="24" fill="currentColor" viewBox="0 0 24 24">
  <path fill="#656D75" fill-rule="evenodd" d="M7.861 19.5A3.861 3.861 0 0 1 4 15.639V7.86A3.861 3.861 0 0 1 7.861 4h7.778A3.861 3.861 0 0 1 19.5 7.861v6.811c0 .818-.325 1.602-.903 2.18l-1.516 1.517a3.86 3.86 0 0 1-2.73 1.131H7.86Zm7.778-14H7.86A2.361 2.361 0 0 0 5.5 7.861v7.778A2.361 2.361 0 0 0 7.861 18H13v-2.583A2.416 2.416 0 0 1 15.417 13H18V7.861c0-1.25-.97-2.272-2.2-2.356l-.16-.005Zm2.361 9h-2.583a.916.916 0 0 0-.917.917v2.578a2.36 2.36 0 0 0 1.52-.687l1.517-1.517c.296-.296.463-.699.463-1.119V14.5Z" clip-rule="evenodd"/>
</svg>
