<svg xmlns="http://www.w3.org/2000/svg" width="24" height="24" fill="currentColor" viewBox="0 0 24 24">
  <path fill="#656D75" fill-rule="evenodd" d="M8.323 18.407c.868.091 2.005.093 3.677.093 1.672 0 2.809-.002 3.677-.093.842-.09 1.256-.248 1.544-.45.286-.2.536-.45.736-.736.202-.288.36-.702.45-1.544.091-.868.093-2.005.093-3.677 0-1.672-.002-2.809-.093-3.677-.09-.842-.248-1.256-.45-1.544-.2-.286-.45-.536-.736-.736-.288-.202-.702-.36-1.544-.45C14.81 5.502 13.672 5.5 12 5.5c-1.672 0-2.809.002-3.677.093-.842.09-1.256.248-1.544.45a3 3 0 0 0-.736.736c-.202.288-.36.702-.45 1.544C5.502 9.19 5.5 10.328 5.5 12c0 1.672.002 2.809.093 3.677.09.842.248 1.256.45 1.544.2.286.45.536.736.736.288.202.702.36 1.544.45ZM4.813 5.919C4 7.08 4 8.72 4 12c0 3.28 0 4.919.814 6.081a4.5 4.5 0 0 0 1.105 1.105C7.08 20 8.72 20 12 20c3.28 0 4.919 0 6.081-.814a4.5 4.5 0 0 0 1.105-1.105C20 16.92 20 15.28 20 12c0-3.28 0-4.919-.814-6.081a4.5 4.5 0 0 0-1.105-1.105C16.92 4 15.28 4 12 4c-3.28 0-4.919 0-6.081.814a4.5 4.5 0 0 0-1.105 1.105ZM10.25 16a.75.75 0 0 1-.75-.75v-.75h-.75a.75.75 0 0 1 0-1.5h.75v-2h-.75a.75.75 0 0 1 0-1.5h.75v-.75a.75.75 0 0 1 1.5 0v.75h2v-.75a.75.75 0 0 1 1.5 0v.75h.75a.75.75 0 0 1 0 1.5h-.75v2h.75a.75.75 0 0 1 0 1.5h-.75v.75a.75.75 0 0 1-1.5 0v-.75h-2v.75a.75.75 0 0 1-.75.75ZM13 13v-2h-2v2h2Z" clip-rule="evenodd"/>
</svg>
