<svg xmlns="http://www.w3.org/2000/svg" width="24" height="24" fill="currentColor" viewBox="0 0 24 24">
  <path fill="#656D75" fill-rule="evenodd" d="M8.789 4c.799 0 1.506.394 1.938.998a2.374 2.374 0 0 1 2.364-.006l2.317 1.321a2.38 2.38 0 0 1 1.12 1.452l.029.127a2.38 2.38 0 0 1 1.79 1.163l1.327 2.27a2.38 2.38 0 0 1-.875 3.27l-8.07 4.6A6.14 6.14 0 0 1 7.684 20h-.127A3.584 3.584 0 0 1 4 16.416V6.38A2.38 2.38 0 0 1 6.38 4h2.409Zm0 1.548H6.38a.832.832 0 0 0-.832.832v10.036c0 1.124.912 2.035 2.013 2.036l.1-.004h.055a2.036 2.036 0 0 0 1.898-1.872l.006-.16V6.38a.832.832 0 0 0-.831-.832Zm-1.206 9.893a.976.976 0 0 1 .968.848l.008.128a.975.975 0 1 1-.976-.976Zm8.782-6.013-.08.154-4.092 6.994 5.839-3.327a.832.832 0 0 0 .306-1.142l-1.328-2.27a.832.832 0 0 0-.645-.409Zm-5.17-2.788-.027.044v8.578l3.78-6.461a.834.834 0 0 0 .08-.187.41.41 0 0 1 .019-.102.765.765 0 0 0-.014-.346.832.832 0 0 0-.391-.508l-2.318-1.32a.832.832 0 0 0-1.13.302Z" clip-rule="evenodd"/>
</svg>
