<svg xmlns="http://www.w3.org/2000/svg" width="24" height="24" fill="currentColor" viewBox="0 0 24 24">
  <path fill="#656D75" fill-rule="evenodd" d="M9.052 5.25C6.67 5.25 4.75 7.16 4.75 9.5v3.333c0 2.34 1.919 4.25 4.302 4.25h.843a.75.75 0 0 1 0 1.5h-.843c-3.197 0-5.802-2.566-5.802-5.75V9.5c0-3.183 2.605-5.75 5.802-5.75h3.369c3.197 0 5.802 2.567 5.802 5.75a.75.75 0 0 1-1.5 0c0-2.34-1.918-4.25-4.302-4.25H9.052Zm-.088 2.715a.75.75 0 0 1 .75.75v.843a.75.75 0 1 1-1.5 0v-.843a.75.75 0 0 1 .75-.75Zm3.408 0a.75.75 0 0 1 .75.75v.843a.75.75 0 0 1-1.5 0v-.843a.75.75 0 0 1 .75-.75Zm3.99 4.054a2.587 2.587 0 0 1 3.632 0 2.541 2.541 0 0 1 0 3.617l-3.868 3.828c-.252.25-.58.406-.927.45h-.002l-2.71.33a.75.75 0 0 1-.834-.851l.382-2.643c.05-.34.208-.655.453-.897l3.873-3.834Zm1.054 1.067-3.873 3.833a.082.082 0 0 0-.024.046l-.241 1.672 1.735-.212a.102.102 0 0 0 .058-.027l3.868-3.828a1.04 1.04 0 0 0 0-1.485 1.087 1.087 0 0 0-1.523 0Zm-9.73-.418a90.58 90.58 0 0 0-.527.533l.001.002.003.002.006.006.017.016.055.05a5.062 5.062 0 0 0 .88.604 5.35 5.35 0 0 0 2.546.642c.368 0 .697-.043.995-.1a.75.75 0 1 0-.284-1.473c-.23.045-.462.073-.71.073a3.85 3.85 0 0 1-2.32-.776 2.335 2.335 0 0 1-.136-.114l-.001-.001-.002-.001a.75.75 0 0 0-1.05 1.07l.527-.534Zm.527-.534-.001-.001Z" clip-rule="evenodd"/>
</svg>
