<svg xmlns="http://www.w3.org/2000/svg" width="24" height="24" fill="currentColor" viewBox="0 0 24 24">
  <path fill="#656D75" fill-rule="evenodd" d="m14.362 9.187-1.387-.877c-1.142-.722-1.91-1.206-2.506-1.51-.607-.309-.805-.304-.835-.301-.35.03-.67.208-.883.487-.019.025-.128.19-.191.869-.062.667-.064 1.575-.064 2.928v2.434c0 1.353.002 2.261.064 2.928.063.68.172.844.191.869.213.28.533.456.883.487.03.003.228.008.835-.302.596-.303 1.364-.787 2.506-1.51l1.387-.876c1.107-.7 1.849-1.171 2.368-1.57.518-.4.63-.595.66-.67a1.5 1.5 0 0 0 0-1.147c-.03-.074-.142-.268-.66-.668-.52-.4-1.26-.87-2.368-1.57ZM7.561 6.078C7 6.816 7 8.138 7 10.783v2.434c0 2.645 0 3.967.56 4.705a2.742 2.742 0 0 0 1.943 1.072c.922.08 2.038-.625 4.27-2.037l1.388-.877c2.165-1.37 3.247-2.054 3.61-2.932a3.001 3.001 0 0 0 0-2.296c-.363-.878-1.445-1.563-3.61-2.932l-1.387-.877c-2.233-1.412-3.35-2.118-4.271-2.037A2.742 2.742 0 0 0 7.56 6.078Z" clip-rule="evenodd"/>
</svg>
