<svg xmlns="http://www.w3.org/2000/svg" width="40" height="37" fill="currentColor" viewBox="0 0 40 37">
  <g filter="url(#a)">
    <path fill="#fff" fill-opacity=".8" d="M8 11.334C8 5.208 8 2.145 9.795.795c.303-.228.634-.416.985-.561 2.075-.859 4.711.7 9.983 3.82l11.268 6.665c5.107 3.022 7.66 4.532 7.934 6.723.047.37.047.745 0 1.116-.274 2.19-2.827 3.701-7.934 6.723l-11.268 6.666c-5.272 3.119-7.908 4.678-9.983 3.82a4.494 4.494 0 0 1-.985-.562C8 33.855 8 30.792 8 24.666V11.334Z"/>
  </g>
  <defs>
    <filter id="a" width="32" height="37" x="8" y="0" color-interpolation-filters="sRGB" filterUnits="userSpaceOnUse">
      <feFlood flood-opacity="0" result="BackgroundImageFix"/>
      <feColorMatrix in="SourceAlpha" result="hardAlpha" values="0 0 0 0 0 0 0 0 0 0 0 0 0 0 0 0 0 0 127 0"/>
      <feOffset dy="1"/>
      <feColorMatrix values="0 0 0 0 0.0862745 0 0 0 0 0.101961 0 0 0 0 0.117647 0 0 0 0.1 0"/>
      <feBlend in2="BackgroundImageFix" result="effect1_dropShadow_1104_121583"/>
      <feBlend in="SourceGraphic" in2="effect1_dropShadow_1104_121583" result="shape"/>
    </filter>
  </defs>
</svg>
