<svg xmlns="http://www.w3.org/2000/svg" width="24" height="24" fill="currentColor" viewBox="0 0 24 24">
  <path fill="#656D75" fill-rule="evenodd" d="M8.846 9.384a.273.273 0 0 1-.276-.28C8.666 6.801 10.434 6 12.04 6c1.764 0 3.384.975 3.384 2.994 0 1.441-.81 2.128-1.572 2.747-.93.747-1.275 1.027-1.275 1.985a.475.475 0 0 1-.475.475h-.566a.627.627 0 0 1-.627-.62c-.048-1.237.634-2 1.476-2.654.754-.593 1.227-.984 1.227-1.832 0-1.102-.802-1.56-1.66-1.56-1.074 0-1.642.707-1.716 1.654a.207.207 0 0 1-.204.195H8.846Zm1.854 7.522c0-.628.48-1.085 1.082-1.085.594 0 1.075.457 1.075 1.085A1.07 1.07 0 0 1 11.782 18a1.072 1.072 0 0 1-1.082-1.094Z" clip-rule="evenodd"/>
</svg>
