<svg xmlns="http://www.w3.org/2000/svg" width="24" height="24" fill="currentColor" viewBox="0 0 24 24">
  <path fill="#656D75" fill-rule="evenodd" d="M12.647 5c2.384.004 3.647.054 4.575.674a4.01 4.01 0 0 1 1.104 1.103C19 7.787 19 9.191 19 12c0 2.809 0 4.213-.674 5.222a4.003 4.003 0 0 1-1.104 1.104C16.213 19 14.809 19 12 19c-2.81 0-4.214 0-5.223-.674a4.002 4.002 0 0 1-1.103-1.104c-.62-.928-.67-2.191-.674-4.575v-1.295c.004-2.383.054-3.646.674-4.575a4 4 0 0 1 1.103-1.103c.929-.62 2.192-.67 4.575-.674h1.295Zm-.017 1.5h-1.26c-1.097.002-1.883.013-2.505.076-.71.072-1.037.2-1.254.345a2.5 2.5 0 0 0-.69.69c-.145.217-.273.545-.345 1.254-.063.622-.074 1.408-.076 2.505v1.26c.002 1.096.013 1.882.076 2.504.072.71.2 1.038.345 1.255a2.5 2.5 0 0 0 .69.69c.217.144.545.272 1.254.344.735.075 1.699.077 3.135.077 1.435 0 2.4-.002 3.134-.077.71-.072 1.038-.2 1.255-.345a2.5 2.5 0 0 0 .69-.69c.144-.216.272-.544.344-1.254.075-.735.077-1.699.077-3.134 0-1.436-.002-2.4-.077-3.135-.072-.71-.2-1.037-.345-1.254a2.5 2.5 0 0 0-.69-.69c-.216-.145-.544-.273-1.254-.345-.622-.063-1.408-.074-2.504-.076ZM15 14a1 1 0 1 1 0 2 1 1 0 0 1 0-2Zm-6 0a1 1 0 1 1 0 2 1 1 0 0 1 0-2Zm3-3a1 1 0 1 1 0 2 1 1 0 0 1 0-2ZM9 8a1 1 0 1 1 0 2 1 1 0 0 1 0-2Zm6 0a1 1 0 1 1 0 2 1 1 0 0 1 0-2Z" clip-rule="evenodd"/>
</svg>
