<svg xmlns="http://www.w3.org/2000/svg" width="24" height="24" fill="currentColor" viewBox="0 0 24 24">
  <path fill="#656D75" fill-rule="evenodd" d="M17.62 5H6.38C5.064 5 4 6.024 4 7.288v7.079c0 1.263 1.065 2.287 2.38 2.287h11.24c1.315 0 2.38-1.024 2.38-2.287v-7.08C20 6.025 18.935 5 17.62 5ZM6.38 6.489h11.24c.46 0 .832.357.832.799v7.079c0 .44-.372.798-.831.798H6.379c-.459 0-.83-.357-.83-.798v-7.08c0-.44.371-.798.83-.798Zm9.233 11.022c.428 0 .774.334.774.745a.755.755 0 0 1-.669.737l-.105.007H8.387c-.427 0-.774-.333-.774-.744 0-.377.291-.689.67-.738l.104-.007h7.226Z" clip-rule="evenodd"/>
</svg>
