<svg xmlns="http://www.w3.org/2000/svg" width="24" height="24" fill="currentColor" viewBox="0 0 24 24">
  <path fill="#656D75" d="M9.25 5c-1.322 0-2.287.48-2.912 1.206A3.557 3.557 0 0 0 5.5 8.5v.89a2.25 2.25 0 0 1-.971 1.851l-.205.142a.75.75 0 0 0 0 1.234l.205.141A2.25 2.25 0 0 1 5.5 14.61v.89c0 .72.233 1.59.838 2.294C6.963 18.519 7.928 19 9.25 19a.75.75 0 0 0 0-1.5c-.928 0-1.463-.322-1.775-.685A2.058 2.058 0 0 1 7 15.5v-.89A3.75 3.75 0 0 0 5.943 12 3.75 3.75 0 0 0 7 9.39V8.5c0-.425.142-.929.475-1.315.312-.363.847-.685 1.775-.685a.75.75 0 0 0 0-1.5Zm8.412 1.206C17.037 5.481 16.072 5 14.75 5a.75.75 0 0 0 0 1.5c.928 0 1.463.322 1.775.685.333.386.475.89.475 1.315v.89A3.75 3.75 0 0 0 18.057 12 3.75 3.75 0 0 0 17 14.61v.89c0 .425-.142.929-.475 1.315-.312.363-.847.685-1.775.685a.75.75 0 0 0 0 1.5c1.322 0 2.287-.48 2.912-1.206A3.557 3.557 0 0 0 18.5 15.5v-.89c0-.74.363-1.431.971-1.851l.205-.142a.75.75 0 0 0 0-1.234l-.204-.141A2.25 2.25 0 0 1 18.5 9.39V8.5c0-.72-.233-1.59-.838-2.294Z"/>
  <path fill="#656D75" fill-rule="evenodd" d="M12.886 9.648A.648.648 0 0 0 12.202 9h-.035a.648.648 0 0 0-.648.648 1.871 1.871 0 0 1-1.871 1.87.648.648 0 0 0 0 1.296 1.87 1.87 0 0 1 1.87 1.872.648.648 0 0 0 .685.646l.036.001c.357 0 .647-.29.647-.647 0-1.034.838-1.872 1.872-1.872l.088-.005a.648.648 0 0 0-.088-1.29 1.871 1.871 0 0 1-1.872-1.871Zm-.74 1.945.056-.075c.18.246.395.464.637.648a3.163 3.163 0 0 0-.636.649 3.17 3.17 0 0 0-.636-.648c.217-.166.412-.359.58-.574Z" clip-rule="evenodd"/>
</svg>
