<svg xmlns="http://www.w3.org/2000/svg" width="24" height="24" fill="currentColor" viewBox="0 0 24 24">
  <path fill="#656D75" fill-rule="evenodd" d="M6.338 6.206C6.963 5.481 7.928 5 9.25 5a.75.75 0 0 1 0 1.5c-.928 0-1.463.322-1.775.685C7.142 7.571 7 8.075 7 8.5v.89A3.75 3.75 0 0 1 5.943 12 3.75 3.75 0 0 1 7 14.61v.89c0 .425.142.929.475 1.315.312.363.847.685 1.775.685a.75.75 0 0 1 0 1.5c-1.322 0-2.287-.48-2.912-1.206A3.557 3.557 0 0 1 5.5 15.5v-.89a2.25 2.25 0 0 0-.971-1.851l-.205-.142a.75.75 0 0 1 0-1.234l.205-.141A2.25 2.25 0 0 0 5.5 9.39V8.5c0-.72.233-1.59.838-2.294Zm8.436 4.008a.75.75 0 0 1 .012 1.06l-2.301 2.355a1.25 1.25 0 0 1-1.737.049l-1.504-1.374a.75.75 0 0 1 1.012-1.108l1.147 1.048a.25.25 0 0 0 .347-.01l1.964-2.008a.75.75 0 0 1 1.06-.012ZM14.75 5c1.322 0 2.287.48 2.912 1.206A3.56 3.56 0 0 1 18.5 8.5v.89c0 .74.363 1.431.971 1.851l.205.142a.75.75 0 0 1 0 1.234l-.204.141a2.25 2.25 0 0 0-.972 1.852v.89c0 .72-.233 1.59-.838 2.294-.625.725-1.59 1.206-2.912 1.206a.75.75 0 0 1 0-1.5c.928 0 1.463-.322 1.775-.685.333-.386.475-.89.475-1.315v-.89A3.75 3.75 0 0 1 18.057 12 3.75 3.75 0 0 1 17 9.39V8.5c0-.425-.142-.929-.475-1.315-.312-.363-.847-.685-1.775-.685a.75.75 0 0 1 0-1.5Z" clip-rule="evenodd"/>
</svg>
