<svg xmlns="http://www.w3.org/2000/svg" width="24" height="24" fill="currentColor" viewBox="0 0 24 24">
  <path fill="#656D75" fill-rule="evenodd" d="M11.778 8.23a4.232 4.232 0 0 0-.35.33l-1.586 1.586c-.375.376-.616.618-.756.803a2 2 0 0 0-.01.015l.017.002c.23.033.572.034 1.102.034h.586v3c0 .368.001.593.023.756.02.144.047.168.05.17.003.004.027.032.17.051.164.022.39.023.757.023.368 0 .593-.001.756-.023.144-.02.168-.047.17-.05.004-.003.032-.027.051-.17.022-.164.023-.39.023-.757v-3h.586c.53 0 .872-.001 1.102-.034l.017-.002a1.758 1.758 0 0 0-.01-.015c-.14-.185-.38-.427-.756-.803l-1.585-1.585a4.266 4.266 0 0 0-.351-.331l-.003-.003-.003.003Zm-.607-.795a.99.99 0 0 1 .61-.228.99.99 0 0 1 .61.228c.136.104.281.25.431.4l.02.019 1.613 1.613c.34.34.633.633.82.881.18.24.397.613.223 1.035-.175.421-.592.532-.89.574a6.69 6.69 0 0 1-.827.042v2.032c0 .327 0 .62-.032.859-.035.26-.116.526-.334.744-.218.218-.485.3-.744.334-.238.032-.532.032-.86.032h-.06c-.328 0-.622 0-.86-.032-.26-.035-.526-.116-.744-.334-.218-.218-.3-.485-.334-.744a6.941 6.941 0 0 1-.032-.86V12a6.597 6.597 0 0 1-.828-.043c-.297-.043-.714-.153-.889-.574-.174-.422.043-.795.223-1.035.187-.248.48-.541.82-.881l.028-.028 1.585-1.585.02-.02c.15-.15.295-.295.431-.4Z" clip-rule="evenodd"/>
</svg>
