<svg xmlns="http://www.w3.org/2000/svg" width="24" height="24" fill="currentColor" viewBox="0 0 24 24">
  <path fill="#656D75" fill-rule="evenodd" d="M4.841 8.444A7.991 7.991 0 0 1 12 4a7.991 7.991 0 0 1 7.159 4.444.727.727 0 1 1-1.303.648A6.537 6.537 0 0 0 12 5.455a6.537 6.537 0 0 0-5.856 3.637.727.727 0 1 1-1.303-.648ZM8.253 9.87a.727.727 0 0 1 1.029 0l1.616 1.616a.727.727 0 0 1 0 1.028L9.282 14.13a.727.727 0 0 1-1.029-1.028l.375-.375h-3.9a.727.727 0 0 1 0-1.454h3.9l-.375-.375a.727.727 0 0 1 0-1.028Zm7.494 0a.727.727 0 0 1 0 1.028l-.375.375h3.9a.727.727 0 1 1 0 1.454h-3.9l.375.375a.727.727 0 0 1-1.029 1.028l-1.616-1.616a.727.727 0 0 1 0-1.028l1.616-1.616a.727.727 0 0 1 1.029 0ZM5.169 14.58a.727.727 0 0 1 .975.327A6.537 6.537 0 0 0 12 18.546a6.537 6.537 0 0 0 5.856-3.638.727.727 0 0 1 1.303.648A7.991 7.991 0 0 1 12 20a7.991 7.991 0 0 1-7.159-4.444.727.727 0 0 1 .328-.975Z" clip-rule="evenodd"/>
</svg>
