<svg xmlns="http://www.w3.org/2000/svg" width="24" height="24" fill="currentColor" viewBox="0 0 24 24">
  <path fill="#656D75" fill-rule="evenodd" d="M5.5 12a6.5 6.5 0 1 1 13 0 6.5 6.5 0 1 1-13 0ZM4 12a8 8 0 0 0 8 8 8 8 0 0 0 8-8 8 8 0 0 0-8-8 8 8 0 0 0-8 8Z" clip-rule="evenodd"/>
  <path fill="#656D75" fill-rule="evenodd" d="M11.354 14.318c.368-.205.849-.524 1.592-1.02.615-.41 1-.669 1.267-.88a1.57 1.57 0 0 0 .245-.222.498.498 0 0 0 0-.406 1.724 1.724 0 0 0-.245-.221c-.267-.212-.652-.47-1.267-.88-.743-.497-1.224-.816-1.592-1.02a2.125 2.125 0 0 0-.377-.178.5.5 0 0 0-.38.202c-.009.031-.04.145-.061.412-.035.42-.036.995-.036 1.888 0 .893.001 1.469.036 1.888.022.267.052.381.062.412a.5.5 0 0 0 .379.202c.03-.01.143-.047.377-.177ZM9.326 8.897C9 9.395 9 10.26 9 11.993s0 2.598.326 3.096c.373.57 1.012.91 1.694.904.596-.006 1.318-.488 2.76-1.45 1.187-.793 1.781-1.19 2.018-1.672a1.993 1.993 0 0 0 0-1.756c-.237-.483-.83-.879-2.018-1.672-1.442-.962-2.164-1.444-2.76-1.45a2 2 0 0 0-1.694.904Z" clip-rule="evenodd"/>
</svg>
