<svg xmlns="http://www.w3.org/2000/svg" width="24" height="24" fill="currentColor" viewBox="0 0 24 24">
  <path fill="#656D75" fill-rule="evenodd" d="M12.4 7.5h-.8c-1.005 0-1.668.001-2.177.043-.49.04-.703.11-.831.175a2 2 0 0 0-.874.874c-.065.128-.135.34-.175.831C7.5 9.932 7.5 10.595 7.5 11.6v.8c0 1.005.001 1.668.043 2.177.04.49.11.703.175.831a2 2 0 0 0 .874.874c.128.065.34.135.831.175.509.042 1.172.043 2.177.043h.8c1.005 0 1.668-.001 2.177-.043.49-.04.703-.11.831-.175a2 2 0 0 0 .874-.874c.065-.128.135-.34.175-.831.042-.509.043-1.172.043-2.177v-.8c0-1.005-.001-1.668-.043-2.177-.04-.49-.11-.703-.175-.831a2 2 0 0 0-.874-.874c-.128-.065-.34-.135-.831-.175C14.068 7.5 13.405 7.5 12.4 7.5Zm-6.019.411C6 8.66 6 9.64 6 11.6v.8c0 1.96 0 2.94.381 3.689a3.5 3.5 0 0 0 1.53 1.53C8.66 18 9.64 18 11.6 18h.8c1.96 0 2.94 0 3.689-.381a3.5 3.5 0 0 0 1.53-1.53C18 15.34 18 14.36 18 12.4v-.8c0-1.96 0-2.94-.381-3.689a3.5 3.5 0 0 0-1.53-1.53C15.34 6 14.36 6 12.4 6h-.8c-1.96 0-2.94 0-3.689.381a3.5 3.5 0 0 0-1.53 1.53Z" clip-rule="evenodd"/>
</svg>
