<svg xmlns="http://www.w3.org/2000/svg" width="24" height="24" fill="currentColor" viewBox="0 0 24 24">
  <path fill="#656D75" fill-rule="evenodd" d="M16 6.75a.75.75 0 0 0-.75-.75H10.5A2.5 2.5 0 0 0 8 8.5v.75a.75.75 0 0 0 1.5 0V8.5a1 1 0 0 1 1-1h4.75a.75.75 0 0 0 .75-.75Zm-10 5.5a.75.75 0 0 1 .75-.75h10.5a.75.75 0 0 1 0 1.5H6.75a.75.75 0 0 1-.75-.75ZM8.75 18a.75.75 0 0 1 0-1.5h4.5c.232 0 .348 0 .445-.02a1 1 0 0 0 .786-.785c.019-.097.019-.213.019-.445v-.5a.75.75 0 0 1 1.5 0v.393c0 .332 0 .497-.016.637a2.5 2.5 0 0 1-2.204 2.204c-.14.016-.305.016-.637.016H8.75Z" clip-rule="evenodd"/>
</svg>
