<svg xmlns="http://www.w3.org/2000/svg" width="24" height="24" fill="currentColor" viewBox="0 0 24 24">
  <path fill="#656D75" fill-rule="evenodd" d="M12 4a.75.75 0 0 1 .75.75v1.297c1.277.16 2.512.73 3.493 1.71.98.98 1.55 2.216 1.71 3.493h1.297a.75.75 0 0 1 0 1.5h-1.297a5.973 5.973 0 0 1-1.71 3.493 5.973 5.973 0 0 1-3.493 1.71v1.297a.75.75 0 0 1-1.5 0v-1.297a5.973 5.973 0 0 1-3.493-1.71 5.974 5.974 0 0 1-1.71-3.493H4.75a.75.75 0 0 1 0-1.5h1.297a5.974 5.974 0 0 1 1.71-3.493 5.974 5.974 0 0 1 3.493-1.71V4.75A.75.75 0 0 1 12 4Zm4.437 7.25h-.687a.75.75 0 0 0 0 1.5h.687a4.48 4.48 0 0 1-1.255 2.432 4.48 4.48 0 0 1-2.432 1.255v-.687a.75.75 0 0 0-1.5 0v.687a4.48 4.48 0 0 1-2.432-1.255 4.48 4.48 0 0 1-1.255-2.432h.687a.75.75 0 0 0 0-1.5h-.687a4.48 4.48 0 0 1 1.255-2.432 4.48 4.48 0 0 1 2.432-1.255v.687a.75.75 0 0 0 1.5 0v-.687a4.48 4.48 0 0 1 2.432 1.255 4.48 4.48 0 0 1 1.255 2.432Z" clip-rule="evenodd"/>
</svg>
