<svg xmlns="http://www.w3.org/2000/svg" width="24" height="24" fill="currentColor" viewBox="0 0 24 24">
  <path fill="#656D75" fill-rule="evenodd" d="M14.253 6a.75.75 0 0 1 .678.428l5 10.504a.75.75 0 1 1-1.355.645L17.826 16H10.68l-.75 1.576a.75.75 0 1 1-1.355-.644l5-10.504A.75.75 0 0 1 14.253 6Zm0 2.495 2.859 6.005h-5.717l2.858-6.005ZM4.75 7a.75.75 0 0 0 0 1.5h5.5a.75.75 0 0 0 0-1.5h-5.5ZM4 10.75a.75.75 0 0 1 .75-.75h3.5a.75.75 0 0 1 0 1.5h-3.5a.75.75 0 0 1-.75-.75ZM4.75 13a.75.75 0 0 0 0 1.5h1.5a.75.75 0 0 0 0-1.5h-1.5Z" clip-rule="evenodd"/>
</svg>
