<svg xmlns="http://www.w3.org/2000/svg" width="24" height="24" fill="currentColor" viewBox="0 0 24 24">
  <path fill="#656D75" fill-rule="evenodd" d="M5.5 12a6.5 6.5 0 1 1 13 0 6.5 6.5 0 1 1-13 0ZM12 4a8 8 0 0 0-8 8 8 8 0 0 0 8 8 8 8 0 0 0 8-8 8 8 0 0 0-8-8Zm-1.25 10a.75.75 0 0 0 0 1.5h2.5a.75.75 0 0 0 0-1.5h-.5v-4h1l.249.001.001.249a.75.75 0 0 0 1.5 0c0-.205 0-.461-.025-.649-.03-.219-.105-.5-.341-.735a1.239 1.239 0 0 0-.735-.341c-.188-.025-.41-.025-.615-.025h-3.568c-.206 0-.427 0-.615.025-.219.03-.5.105-.735.341a1.239 1.239 0 0 0-.341.735c-.025.188-.025.444-.025.649a.75.75 0 0 0 1.5 0l.001-.249.249-.001h1v4h-.5Z" clip-rule="evenodd"/>
</svg>
