<svg xmlns="http://www.w3.org/2000/svg" width="24" height="24" fill="currentColor" viewBox="0 0 24 24">
  <path fill="#656D75" fill-rule="evenodd" d="M9.77 5.654c0-.087.07-.158.158-.158h4.532c.088 0 .16.07.16.158V6.72H9.77V5.654ZM9.927 4c-.914 0-1.654.74-1.654 1.654V6.72H5.748a.748.748 0 0 0 0 1.495h.315l.724 9.42A2.56 2.56 0 0 0 9.341 20h5.707a2.56 2.56 0 0 0 2.553-2.364l.725-9.42h.314a.748.748 0 0 0 0-1.496h-2.525V5.654c0-.913-.74-1.654-1.654-1.654H9.927ZM9.02 8.215H7.563l.716 9.306c.042.555.505.983 1.062.983h5.707c.556 0 1.02-.428 1.062-.983l.716-9.306H9.02Zm4.76 2.13c.413 0 .747.335.747.748v4.533a.748.748 0 1 1-1.495 0v-4.532c0-.413.335-.748.748-.748Zm-2.425.748a.748.748 0 1 0-1.496 0v4.533a.748.748 0 0 0 1.496 0v-4.532Z" clip-rule="evenodd"/>
</svg>
