<svg xmlns="http://www.w3.org/2000/svg" width="24" height="24" fill="currentColor" viewBox="0 0 24 24">
  <path fill="#656D75" fill-rule="evenodd" d="M10.463 6.52A4.572 4.572 0 0 0 5.74 9.494c-.685 1.871.159 3.91 1.934 5.14a.75.75 0 1 1-.854 1.232c-2.198-1.522-3.463-4.23-2.488-6.889a6.072 6.072 0 0 1 6.27-3.95 6.068 6.068 0 0 1 5.282 4.412 4.38 4.38 0 0 1 4.052 3.625c.366 2.123-.952 4.192-2.943 4.893a.75.75 0 0 1-.499-1.414c1.346-.475 2.197-1.868 1.964-3.225a2.88 2.88 0 0 0-2.842-2.387c-.078 0-.151.005-.264.013h-.015a.75.75 0 0 1-.793-.625 4.565 4.565 0 0 0-4.082-3.799Zm1.255 4.7a.75.75 0 0 1 1.06 0l2.5 2.5a.75.75 0 1 1-1.06 1.06l-1.22-1.22v4.69a.75.75 0 1 1-1.5 0v-4.69l-1.22 1.22a.75.75 0 0 1-1.06-1.06l2.5-2.5Z" clip-rule="evenodd"/>
</svg>
