<svg xmlns="http://www.w3.org/2000/svg" width="24" height="24" fill="currentColor" viewBox="0 0 24 24">
  <path fill="#656D75" fill-rule="evenodd" d="M14.75 6.5h1.69l-4.22 4.22a.75.75 0 1 0 1.06 1.06l4.22-4.22v1.69a.75.75 0 0 0 1.5 0V7.21c0-.319 0-.628-.034-.883-.039-.287-.133-.615-.405-.888-.273-.272-.6-.366-.888-.405C17.418 5 17.109 5 16.791 5H14.75a.75.75 0 0 0 0 1.5Zm-3.412.04a.75.75 0 1 0-.179-1.49 7.001 7.001 0 1 0 7.791 7.788.75.75 0 0 0-1.49-.178 5.501 5.501 0 1 1-6.122-6.12Z" clip-rule="evenodd"/>
</svg>
