<svg xmlns="http://www.w3.org/2000/svg" width="24" height="24" fill="currentColor" viewBox="0 0 24 24">
  <path fill="#515A63" d="M9.92 2.696a5.13 5.13 0 0 1 5.16 0l4.37 2.544A5.129 5.129 0 0 1 22 9.673v4.625a5.13 5.13 0 0 1-2.549 4.433l-4.37 2.543a5.13 5.13 0 0 1-5.16 0L5.55 18.732A5.129 5.129 0 0 1 3 14.298V9.673A5.13 5.13 0 0 1 5.549 5.24l4.37-2.544Zm4.396 1.311a3.613 3.613 0 0 0-3.633 0L6.312 6.551a3.613 3.613 0 0 0-1.795 3.122v4.625c0 1.286.684 2.475 1.796 3.122l4.37 2.543a3.614 3.614 0 0 0 3.635 0l4.37-2.543a3.613 3.613 0 0 0 1.795-3.122V9.673a3.612 3.612 0 0 0-1.796-3.122l-4.37-2.544Zm.163 9.81a2.807 2.807 0 0 1 2.611 1.774.759.759 0 0 1-1.366.652l-.044-.093a1.293 1.293 0 0 0-1.062-.808l-.138-.008h-3.96a1.293 1.293 0 0 0-1.14.686l-.062.132a.758.758 0 0 1-1.409-.563 2.81 2.81 0 0 1 2.4-1.764l.211-.008h3.958ZM12.5 7.342l.171.005a2.917 2.917 0 1 1-.342 0l.171-.005Zm0 1.517-.135.006a1.4 1.4 0 1 0 .27 0l-.135-.006Z"/>
</svg>
