<svg xmlns="http://www.w3.org/2000/svg" width="24" height="24" fill="currentColor" viewBox="0 0 24 24">
  <path fill="#656D75" fill-rule="evenodd" d="M16.883 8.54a2.64 2.64 0 0 1 1.934.837c.5.539.744 1.26.67 1.987l-.56 5.45c-.136 1.314-1.264 2.308-2.604 2.308H7.177c-1.34 0-2.469-.994-2.604-2.309l-.56-5.449a2.535 2.535 0 0 1 .67-1.987 2.64 2.64 0 0 1 1.934-.836h10.266Zm0 1.5H6.617c-.32 0-.624.132-.835.359a1.035 1.035 0 0 0-.277.812l.56 5.449c.056.542.533.962 1.112.962h9.146c.579 0 1.056-.42 1.112-.962l.56-5.449c.03-.295-.07-.59-.277-.812a1.14 1.14 0 0 0-.835-.358Zm-3.189 1.339a.75.75 0 0 1 0 1.5H9.805a.75.75 0 0 1 0-1.5h3.89Zm2.723-5.109a.75.75 0 0 1 0 1.5H7.083a.75.75 0 1 1 0-1.5h9.334ZM14.86 4a.75.75 0 0 1 0 1.5H8.64a.75.75 0 1 1 0-1.5h6.222Z" clip-rule="evenodd"/>
</svg>
