<svg xmlns="http://www.w3.org/2000/svg" width="24" height="24" fill="currentColor" viewBox="0 0 24 24">
  <path fill="#656D75" fill-rule="evenodd" d="M12 5.455A6.545 6.545 0 1 0 18.546 12 6.545 6.545 0 0 0 12 5.455ZM4 12a8 8 0 0 1 8-8 8 8 0 0 1 8 8 8 8 0 0 1-8 8 8 8 0 0 1-8-8Zm6.957-1.605 2.777 1.643-2.777 1.643v-3.286Zm-.183 3.394Zm3.137-1.855Zm0 .209Zm-2.397-3.108a1.333 1.333 0 0 0-2.012 1.148v3.71a1.333 1.333 0 0 0 2.013 1.148l3.136-1.855a1.333 1.333 0 0 0 0-2.296l-3.136-1.855" clip-rule="evenodd"/>
</svg>
