<svg xmlns="http://www.w3.org/2000/svg" width="24" height="24" fill="currentColor" viewBox="0 0 24 24">
  <path fill="#656D75" fill-rule="evenodd" d="M12 5.75c2.87 0 5.86 2.335 7.57 5.53.24.45.24.992 0 1.442-1.71 3.194-4.7 5.528-7.57 5.528s-5.86-2.335-7.57-5.53c-.24-.45-.24-.992 0-1.442C6.14 8.084 9.13 5.75 12 5.75Zm0 1.5c-2.233 0-4.774 1.984-6.247 4.736a.033.033 0 0 0 0 .027C7.226 14.766 9.767 16.75 12 16.75c2.233 0 4.774-1.984 6.247-4.736a.033.033 0 0 0 0-.027C16.774 9.234 14.233 7.25 12 7.25Zm2.183 2.556a3.124 3.124 0 0 1 0 4.388 3.067 3.067 0 0 1-4.366 0 3.124 3.124 0 0 1 0-4.388 3.067 3.067 0 0 1 4.366 0Zm-3.3 1.055a1.624 1.624 0 0 0 0 2.278 1.567 1.567 0 0 0 2.234 0c.585-.591.62-1.531.103-2.163l-.103-.115-.113-.104a1.566 1.566 0 0 0-2.121.104Z" clip-rule="evenodd"/>
</svg>
