<svg xmlns="http://www.w3.org/2000/svg" width="24" height="24" fill="currentColor" viewBox="0 0 24 24">
  <path fill="#515A63" fill-rule="evenodd" d="M15.843.816c1.056.57 2.612 2.587 2 6.935-1 6.934-5.002 12.626-6.337 12.626-.776 0-.723-1.083.278-5.123 1.334-5.278 3.17-12.782-4.058-12.782-7.672 0-8.617 7.659-3.67 8.59-.722-3.57 1.557-6.934 3.725-6.934 2.335 0 1.335 4.192.388 8.695C7.058 18.049 5.78 24 10.227 24c6.17 0 10.785-10.609 11.62-16.253C22.904.61 18.234-1.306 15.842.817Z" clip-rule="evenodd"/>
</svg>
