<svg xmlns="http://www.w3.org/2000/svg" width="30" height="24" fill="currentColor" viewBox="0 0 30 24">
  <path d="M24.393 6.452c-.677-2.325-1.814-3.984-3.399-3.984-2.113 0-5.01 5.924-5.01 5.924l-.188-.04.05-.668c.009-.128.017-.39.027-.719.04-1.595.023-3.19-.048-4.783L15.762.794a.045.045 0 0 0-.046-.044h-1.432a.046.046 0 0 0-.046.044l-.063 1.388a66.585 66.585 0 0 0-.048 4.783c.008.33.018.593.026.72l.05.666-.188.041s-2.896-5.924-5.01-5.924c-1.583 0-2.72 1.66-3.398 3.984C2.5 6.553 0 9 0 12s2.5 5.447 5.607 5.547c.677 2.325 1.814 3.985 3.398 3.985 2.114 0 5.01-5.924 5.01-5.924l.189.04-.05.667c-.009.128-.017.39-.027.72-.04 1.595-.023 3.19.048 4.784l.063 1.388c0 .025.021.044.046.044h1.432c.025 0 .045-.02.046-.044l.063-1.388c.072-1.594.09-3.19.048-4.785a22.47 22.47 0 0 0-.026-.719l-.05-.666.188-.041s2.896 5.924 5.01 5.924c1.583 0 2.72-1.66 3.398-3.985C27.5 17.446 30 15 30 12c0-3-2.5-5.446-5.607-5.547ZM5.194 15.686c-1.9-.28-3.365-1.825-3.365-3.687 0-1.862 1.464-3.406 3.365-3.686A22.41 22.41 0 0 0 4.9 12a22.4 22.4 0 0 0 .294 3.687ZM8.72 4.398c.13-.087.285-.07.429.004.76.409 3.526 4.725 3.526 4.872l-.134.143c-.829-.574-2.933-2.004-5.12-2.675.4-1.273.893-2.073 1.298-2.344h.001Zm.429 15.2c-.144.073-.299.092-.429.004-.405-.271-.897-1.071-1.298-2.344 2.188-.671 4.292-2.1 5.12-2.675l.134.143c0 .147-2.766 4.463-3.526 4.872h-.001Zm4.346-7.497c-.23.13-5.263 3.085-6.493 3.387A20.804 20.804 0 0 1 6.722 12c0-1.324.11-2.487.28-3.489 1.229.304 6.262 3.26 6.493 3.387v.203Zm7.358-7.697c.143-.074.298-.093.428-.005.405.271.897 1.072 1.298 2.345-2.187.67-4.291 2.1-5.12 2.674l-.134-.143c0-.147 2.767-4.463 3.526-4.871h.002Zm.428 15.2c-.13.086-.285.069-.428-.005-.76-.41-3.527-4.725-3.527-4.872l.134-.143c.83.575 2.933 2.004 5.12 2.675-.4 1.273-.893 2.073-1.298 2.344h-.001Zm1.717-4.114c-1.229-.304-6.262-3.26-6.492-3.387V11.9c.23-.13 5.262-3.085 6.492-3.387.17 1.002.28 2.165.28 3.489 0 1.324-.11 2.487-.28 3.489v-.002Zm1.81.197c.197-1.172.294-2.431.294-3.686s-.097-2.515-.295-3.687c1.901.28 3.366 1.825 3.366 3.687 0 1.862-1.465 3.405-3.366 3.686Z"/>
</svg>
