<svg xmlns="http://www.w3.org/2000/svg" width="24" height="24" fill="currentColor" viewBox="0 0 24 24">
  <path fill="#656D75" fill-rule="evenodd" d="M17.268 6.36 14.232 4.6a4.45 4.45 0 0 0-4.463 0L6.731 6.36A4.483 4.483 0 0 0 4.5 10.24v3.52c0 1.6.85 3.08 2.231 3.88l3.037 1.76c1.381.8 3.083.8 4.463 0l3.037-1.76a4.483 4.483 0 0 0 2.232-3.88v-3.52c0-1.6-.85-3.08-2.232-3.88Zm-6.756-.467a2.966 2.966 0 0 1 2.976 0l3.037 1.76a2.989 2.989 0 0 1 1.487 2.587L18 13.76c-.012 1.067-.555 2.053-1.475 2.586l-3.037 1.76a2.966 2.966 0 0 1-2.976 0l-3.037-1.76A2.977 2.977 0 0 1 6 13.76v-3.52a2.98 2.98 0 0 1 1.475-2.587l3.037-1.76ZM11 9a1 1 0 1 1 2 0l-.438 3.504a.566.566 0 0 1-1.124 0L11 9Zm2 6a1 1 0 1 1-2 0 1 1 0 0 1 2 0Z" clip-rule="evenodd"/>
</svg>
