<svg xmlns="http://www.w3.org/2000/svg" width="24" height="24" fill="currentColor" viewBox="0 0 24 24">
  <path fill="#656D75" fill-rule="evenodd" d="M19 11.5a7.5 7.5 0 1 0-2.787 5.834l2.37 2.37c.347.347.839.418 1.186.07.347-.346.276-.838-.07-1.186l-2.37-2.369A7.469 7.469 0 0 0 19 11.5Zm-13.5 0a6 6 0 1 1 12 0 6 6 0 0 1-12 0Zm5.462-2.542a.5.5 0 0 1 .498-.458h.08a.5.5 0 0 1 .498.458l.143 1.711.01.14.14.01 1.71.143a.5.5 0 0 1 .459.498v.08a.5.5 0 0 1-.459.498l-1.71.143a9.294 9.294 0 0 1-.14.01 9.294 9.294 0 0 1-.01.14l-.143 1.71a.5.5 0 0 1-.498.459h-.08a.5.5 0 0 1-.498-.459l-.143-1.71a9.294 9.294 0 0 1-.01-.14 9.294 9.294 0 0 1-.14-.01l-1.71-.143a.5.5 0 0 1-.459-.498v-.08a.5.5 0 0 1 .458-.498l1.711-.143.14-.01.01-.14.143-1.71Z" clip-rule="evenodd"/>
</svg>
